<svg width="128" height="128" viewBox="0 0 128 128" fill="none" xmlns="http://www.w3.org/2000/svg">
<path fill-rule="evenodd" clip-rule="evenodd" d="M42.6353 48.2914C47.3989 48.2914 51.2605 44.4298 51.2605 39.6662C51.2605 34.9027 47.3989 31.041 42.6353 31.041C37.8717 31.041 34.0101 34.9027 34.0101 39.6662C34.0101 44.4298 37.8717 48.2914 42.6353 48.2914ZM42.6353 55.2914C51.2649 55.2914 58.2605 48.2958 58.2605 39.6662C58.2605 31.0367 51.2649 24.041 42.6353 24.041C34.0058 24.041 27.0101 31.0367 27.0101 39.6662C27.0101 48.2958 34.0058 55.2914 42.6353 55.2914Z" fill="white"/>
<path d="M79.8885 25.0476C88.1388 7.20202 112.154 21.4854 101.019 37.2472L59.2738 96.351C58.3817 97.6141 57.9356 98.2456 57.3455 98.5772C56.8258 98.8693 56.2309 98.9999 55.6367 98.9524C54.9619 98.8985 54.2923 98.5119 52.9531 97.7387L51.5342 96.9195C50.195 96.1463 49.5254 95.7597 49.1413 95.2023C48.8031 94.7115 48.6187 94.1309 48.6118 93.5348C48.604 92.858 48.9279 92.1559 49.5757 90.7518L79.8885 25.0476Z" fill="white"/>
<rect x="40.5803" y="97.5234" width="20.0073" height="8" rx="3.83727" transform="rotate(30 40.5803 97.5234)" fill="white"/>
</svg>
