<svg width="210" height="209" viewBox="0 0 210 209" fill="none" xmlns="http://www.w3.org/2000/svg">
<path d="M0.900635 77.3861C0.900635 50.5035 0.900635 37.0623 6.13232 26.7945C10.7342 17.7627 18.0773 10.4197 27.1091 5.81775C37.3769 0.58606 50.8181 0.58606 77.7006 0.58606H132.299C159.182 0.58606 172.623 0.58606 182.891 5.81775C191.923 10.4197 199.266 17.7627 203.868 26.7945C209.099 37.0623 209.099 50.5035 209.099 77.3861V131.985C209.099 158.867 209.099 172.309 203.868 182.576C199.266 191.608 191.923 198.951 182.891 203.553C172.623 208.785 159.182 208.785 132.299 208.785H77.7006C50.8181 208.785 37.3769 208.785 27.1091 203.553C18.0773 198.951 10.7342 191.608 6.13232 182.576C0.900635 172.309 0.900635 158.867 0.900635 131.985V77.3861Z" fill="#F5F6F7"/>
<path fill-rule="evenodd" clip-rule="evenodd" d="M111.76 60.4561L105.781 54.4768C104.363 53.0594 103.567 51.1366 103.567 49.132C103.567 47.1275 104.363 45.2053 105.781 43.7879C106.853 42.7157 107.98 41.5888 109.052 40.5165C110.469 39.0991 112.391 38.3032 114.397 38.3032C116.401 38.3032 118.323 39.0991 119.741 40.5165C127.02 47.7957 139.976 60.7513 147.255 68.0304C150.206 70.9822 150.206 75.7676 147.255 78.7194C139.976 85.9985 127.02 98.9541 119.741 106.233C118.323 107.651 116.401 108.447 114.397 108.447C112.391 108.447 110.469 107.651 109.052 106.233C107.98 105.161 106.853 104.035 105.781 102.963C104.363 101.545 103.567 99.6223 103.567 97.6178C103.567 95.6132 104.363 93.6904 105.781 92.273L111.725 86.3289H100.9C96.7259 86.3289 93.3417 89.713 93.3417 93.8877C93.3417 109.971 93.3417 147.426 93.3417 163.509C93.3417 167.683 89.9576 171.068 85.7836 171.068C82.3974 171.068 78.4133 171.068 75.0271 171.068C73.0218 171.068 71.0997 170.271 69.6823 168.854C68.2648 167.436 67.4683 165.514 67.4683 163.509C67.4683 146.899 67.4683 106.711 67.4683 81.7137C67.4683 76.0757 69.7079 70.6687 73.6948 66.6819C77.6816 62.6951 83.0886 60.4561 88.7259 60.4561H111.76Z" fill="url(#paint0_linear)"/>
<defs>
<linearGradient id="paint0_linear" x1="115.543" y1="38.3032" x2="67.4683" y2="171.068" gradientUnits="userSpaceOnUse">
<stop stop-color="#FFDF00"/>
<stop offset="1" stop-color="#FF006E"/>
</linearGradient>
</defs>
</svg>
