<svg width="23" height="23" viewBox="0 0 23 23" fill="none" xmlns="http://www.w3.org/2000/svg">
<ellipse cx="8.2412" cy="7.19692" rx="2.48259" ry="3.09728" fill="black"/>
<path fill-rule="evenodd" clip-rule="evenodd" d="M15.6778 4.57425C16.0756 4.57425 16.398 4.85513 16.398 5.20162L16.398 18.6762C16.398 19.0227 16.0756 19.3036 15.6778 19.3036C15.28 19.3036 14.9575 19.0227 14.9575 18.6762L14.9575 5.20162C14.9575 4.85513 15.28 4.57425 15.6778 4.57425Z" fill="black"/>
<path fill-rule="evenodd" clip-rule="evenodd" d="M13.1424 4.57425C13.5402 4.57425 13.8626 4.85513 13.8626 5.20162L13.8626 18.6762C13.8626 19.0227 13.5402 19.3036 13.1424 19.3036C12.7446 19.3036 12.4221 19.0227 12.4221 18.6762L12.4221 5.20162C12.4221 4.85513 12.7446 4.57425 13.1424 4.57425Z" fill="black"/>
<path fill-rule="evenodd" clip-rule="evenodd" d="M8.24119 4.57425C8.63898 4.57425 8.96145 4.85513 8.96145 5.20162L8.96145 18.6762C8.96145 19.0227 8.63898 19.3036 8.24119 19.3036C7.84341 19.3036 7.52094 19.0227 7.52094 18.6762L7.52094 5.20162C7.52094 4.85513 7.8434 4.57425 8.24119 4.57425Z" fill="black"/>
</svg>
