<svg width="56" height="55" viewBox="0 0 56 55" fill="none" xmlns="http://www.w3.org/2000/svg">
<path fill-rule="evenodd" clip-rule="evenodd" d="M28 7.94922C29.0679 7.94922 29.9336 8.81492 29.9336 9.88281V13.4219C32.4927 13.7264 34.8459 14.7023 36.8119 16.1685L39.2419 13.7384C39.997 12.9833 41.2213 12.9833 41.9764 13.7384C42.7315 14.4936 42.7315 15.7178 41.9764 16.473L39.5753 18.874C41.1026 20.8338 42.1339 23.1991 42.4806 25.7812H45.832C46.8999 25.7812 47.7656 26.6469 47.7656 27.7148C47.7656 28.7827 46.8999 29.6484 45.832 29.6484H42.4806C42.1339 32.2306 41.1026 34.5959 39.5753 36.5557L41.9764 38.9567C42.7315 39.7119 42.7315 40.9361 41.9764 41.6912C41.2213 42.4464 39.997 42.4464 39.2419 41.6912L36.8119 39.2612C34.8459 40.7274 32.4927 41.7033 29.9336 42.0078V45.5469C29.9336 46.6148 29.0679 47.4805 28 47.4805C26.9321 47.4805 26.0664 46.6148 26.0664 45.5469V41.9501C23.5679 41.5762 21.2793 40.5602 19.374 39.0753L16.7581 41.6912C16.003 42.4464 14.7787 42.4464 14.0236 41.6912C13.2685 40.9361 13.2685 39.7119 14.0236 38.9567L16.6685 36.3119C15.2434 34.401 14.2815 32.1244 13.9491 29.6484H10.168C9.10007 29.6484 8.23438 28.7827 8.23438 27.7148C8.23438 26.6469 9.10007 25.7812 10.168 25.7812H13.9491C14.2815 23.3053 15.2434 21.0287 16.6685 19.1178L14.0236 16.473C13.2685 15.7178 13.2685 14.4936 14.0236 13.7384C14.7787 12.9833 16.003 12.9833 16.7581 13.7384L19.374 16.3543C21.2793 14.8695 23.5679 13.8535 26.0664 13.4796V9.88281C26.0664 8.81492 26.9321 7.94922 28 7.94922ZM38.7422 27.7148C38.7422 21.9008 34.0289 17.1875 28.2148 17.1875C22.4008 17.1875 17.6875 21.9008 17.6875 27.7148C17.6875 33.5289 22.4008 38.2422 28.2148 38.2422C34.0289 38.2422 38.7422 33.5289 38.7422 27.7148Z" fill="url(#paint0_linear)"/>
<defs>
<linearGradient id="paint0_linear" x1="28" y1="7.94922" x2="28" y2="47.4805" gradientUnits="userSpaceOnUse">
<stop stop-color="#939393"/>
<stop offset="1" stop-color="#636363"/>
</linearGradient>
</defs>
</svg>
