<svg width="83" height="71" viewBox="0 0 83 71" fill="none" xmlns="http://www.w3.org/2000/svg">
<path d="M37.5313 16.5067L37.5322 16.5091L37.5329 16.5112M37.5313 16.5067L37.5368 16.5223C38.1748 18.3151 39.8721 19.5136 41.7764 19.5136C43.6808 19.5136 45.3782 18.3149 46.0161 16.522C46.0178 16.5172 46.0195 16.5123 46.0212 16.5075L46.0206 16.5091L46.0192 16.5132L46.017 16.5194L46.0246 16.4989C46.036 16.4685 46.058 16.4107 46.091 16.3282C46.157 16.163 46.2663 15.9009 46.421 15.5645C46.7322 14.8881 47.2178 13.9315 47.8931 12.8668C49.2712 10.6944 51.2839 8.31592 53.9852 6.7917C59.6514 3.59444 67.2711 4.02174 72.2355 8.17625C77.2701 12.3895 80.4996 19.5904 76.7254 30.2223C73.2947 39.8867 64.3525 48.9994 55.6606 55.9342C51.3984 59.3348 47.3606 62.0839 44.3887 63.9818C43.3814 64.6251 42.4996 65.1687 41.7764 65.6048C41.0532 65.1687 40.1713 64.6251 39.1641 63.9818C36.1922 62.0839 32.1544 59.3348 27.8922 55.9342C19.2003 48.9994 10.2581 39.8867 6.82735 30.2223C3.05315 19.5904 6.2827 12.3895 11.3173 8.17625C16.2817 4.02174 23.9014 3.59444 29.5676 6.7917C32.2689 8.31592 34.2816 10.6944 35.6596 12.8668C36.335 13.9315 36.8206 14.8881 37.1318 15.5645C37.2865 15.9009 37.3958 16.163 37.4618 16.3282C37.4948 16.4107 37.5168 16.4685 37.5282 16.4989L37.5358 16.5194L37.5336 16.5132L37.5329 16.5112M37.5313 16.5067C37.5319 16.5082 37.5324 16.5097 37.5329 16.5112M37.5313 16.5067L37.5329 16.5112" stroke="#FF006E" stroke-width="9" stroke-linejoin="round"/>
</svg>
