<svg width="128" height="128" viewBox="0 0 128 128" fill="none" xmlns="http://www.w3.org/2000/svg">
<path fill-rule="evenodd" clip-rule="evenodd" d="M62.484 18.2231C63.4747 17.9391 64.5253 17.9391 65.5159 18.2231C66.31 18.4508 66.8849 18.8219 67.2171 19.0605C67.4793 19.2489 67.7414 19.4694 67.8845 19.5898L90.4723 38.542V33.1139C90.4723 30.6286 92.487 28.6139 94.9723 28.6139C97.4576 28.6139 99.4723 30.6286 99.4723 33.1139V46.0935L106.824 52.2616C108.273 53.4776 108.807 55.4702 108.16 57.2479C107.513 59.0257 105.823 60.2089 103.931 60.2089H99.4723V87.2634C99.4724 89.6356 99.4725 91.682 99.3347 93.3675C99.1894 95.1466 98.8685 96.916 98.0009 98.6188C96.7066 101.159 94.6414 103.224 92.1012 104.518C90.3985 105.386 88.629 105.707 86.8499 105.852C85.1644 105.99 83.118 105.99 80.7459 105.99H47.2542C44.882 105.99 42.8356 105.99 41.1501 105.852C39.371 105.707 37.6016 105.386 35.8988 104.518C33.3587 103.224 31.2934 101.159 29.9991 98.6188C29.1316 96.916 28.8106 95.1466 28.6653 93.3675C28.5276 91.6819 28.5276 89.6355 28.5277 87.2633L28.5277 60.2089H24.0687C22.1769 60.2089 20.487 59.0257 19.84 57.2479C19.193 55.4702 19.727 53.4776 21.1762 52.2616L60.1153 19.5899C60.2584 19.4696 60.5206 19.2489 60.7829 19.0605C61.1151 18.8219 61.6899 18.4508 62.484 18.2231ZM37.5277 60.2089V87.0899C37.5277 89.6844 37.5312 91.3596 37.6354 92.6346C37.7353 93.8571 37.9048 94.3103 38.0182 94.5328C38.4496 95.3796 39.138 96.068 39.9848 96.4994C40.2073 96.6128 40.6605 96.7823 41.883 96.8822C43.158 96.9864 44.8332 96.9899 47.4277 96.9899H80.5723C83.1668 96.9899 84.842 96.9864 86.1171 96.8822C87.3395 96.7823 87.7928 96.6128 88.0153 96.4994C88.862 96.068 89.5504 95.3796 89.9818 94.5328C90.0952 94.3103 90.2648 93.8571 90.3646 92.6346C90.4688 91.3596 90.4723 89.6844 90.4723 87.0899V60.2089H37.5277Z" fill="white"/>
</svg>
