<svg width="128" height="128" viewBox="0 0 128 128" fill="none" xmlns="http://www.w3.org/2000/svg">
<path fill-rule="evenodd" clip-rule="evenodd" d="M99.5811 62.037C108.865 52.7536 108.865 37.7022 99.5811 28.4188C90.2977 19.1354 75.2463 19.1354 65.9629 28.4188C56.6795 37.7022 56.6795 52.7536 65.9629 62.037C75.2463 71.3204 90.2977 71.3204 99.5811 62.037ZM90.3632 52.8192C94.5558 48.6267 94.5558 41.8292 90.3632 37.6366C86.1706 33.4441 79.3732 33.4441 75.1806 37.6366C70.988 41.8292 70.988 48.6267 75.1806 52.8192C79.3732 57.0118 86.1706 57.0118 90.3632 52.8192Z" fill="black"/>
<path d="M28.4187 99.5813C26.2584 97.4209 26.2584 93.9184 28.4187 91.7581L69.6944 50.4823L77.5176 58.3055L36.2419 99.5813C34.0816 101.742 30.579 101.742 28.4187 99.5813Z" fill="black"/>
<rect x="36.0142" y="94.2403" width="18.623" height="14.6062" rx="3.26885" transform="rotate(-45 36.0142 94.2403)" fill="black"/>
</svg>
