<svg width="23" height="23" viewBox="0 0 23 23" fill="none" xmlns="http://www.w3.org/2000/svg">
<path d="M10.0969 14.6885H12.0062V14.5617C12.0329 13.0262 12.4735 12.3386 13.6084 11.6377C14.8034 10.9167 15.5377 9.90195 15.5377 8.39989C15.5377 6.23025 13.8955 4.76157 11.4455 4.76157C9.19571 4.76157 7.39324 6.07671 7.30646 8.48H9.33591C9.41602 7.06473 10.4241 6.44388 11.4455 6.44388C12.5804 6.44388 13.5016 7.19824 13.5016 8.37986C13.5016 9.37456 12.8808 10.0755 12.0863 10.5695C10.8446 11.3306 10.1103 12.0849 10.0969 14.5617V14.6885ZM11.105 18.7474C11.8327 18.7474 12.4402 18.1533 12.4402 17.4122C12.4402 16.6846 11.8327 16.0838 11.105 16.0838C10.3707 16.0838 9.76983 16.6846 9.76983 17.4122C9.76983 18.1533 10.3707 18.7474 11.105 18.7474Z" fill="white"/>
</svg>
