<?xml version="1.0" standalone="no"?>
<!DOCTYPE svg PUBLIC "-//W3C//DTD SVG 20010904//EN"
 "http://www.w3.org/TR/2001/REC-SVG-20010904/DTD/svg10.dtd">
<svg version="1.0" xmlns="http://www.w3.org/2000/svg"
 width="732.000000pt" height="732.000000pt" viewBox="0 0 732.000000 732.000000"
 preserveAspectRatio="xMidYMid meet">
<metadata>
Created by potrace 1.11, written by Peter Selinger 2001-2013
</metadata>
<g transform="translate(0.000000,732.000000) scale(0.100000,-0.100000)"
fill="#000000" stroke="none">
<path d="M3869 7294 c-85 -26 -139 -65 -271 -197 -111 -111 -136 -142 -166
-206 -30 -62 -36 -87 -38 -152 -3 -83 12 -152 49 -224 11 -22 104 -125 206
-228 102 -104 187 -189 188 -190 1 -1 -312 -3 -695 -3 l-697 -1 -110 -26
c-282 -64 -500 -198 -672 -412 -116 -145 -190 -300 -235 -494 l-22 -96 -1
-2340 c-2 -1951 0 -2350 12 -2399 35 -150 162 -275 315 -307 60 -13 625 -18
725 -7 179 20 334 167 361 342 5 31 9 923 10 1999 0 1068 3 1956 6 1972 31
160 146 285 302 328 50 14 112 17 377 17 174 0 317 -2 317 -4 0 -1 -80 -84
-178 -182 -215 -216 -247 -266 -258 -405 -7 -78 13 -168 53 -237 36 -63 276
-303 333 -333 142 -75 306 -70 432 15 29 19 407 390 839 823 807 808 812 814
848 924 29 89 14 213 -36 313 -19 38 -210 234 -812 835 -432 432 -798 795
-811 806 -29 23 -100 58 -149 74 -47 15 -166 13 -222 -5z"/>
</g>
</svg>
