<svg width="23" height="23" viewBox="0 0 23 23" fill="none" xmlns="http://www.w3.org/2000/svg">
<path d="M15.1866 7.11554C15.1866 7.95521 13.4774 8.63589 11.3689 8.63589C9.26049 8.63589 7.55127 7.95521 7.55127 7.11554C7.55127 6.27588 9.26049 5.59519 11.3689 5.59519C13.4774 5.59519 15.1866 6.27588 15.1866 7.11554Z" fill="white"/>
<path fill-rule="evenodd" clip-rule="evenodd" d="M11.4253 3.16895C13.7541 3.1677 16.2671 3.90339 17.5874 5.60054C17.6966 5.74093 17.7716 5.84512 17.8872 6.10571C17.9401 6.22485 17.9846 6.3751 18.0143 6.48889C18.044 6.60269 18.0786 6.75554 18.0907 6.88532C18.119 7.18984 18.0854 7.4105 18.0466 7.66553C18.0451 7.67531 18.0436 7.68513 18.0421 7.69502L16.6526 16.8496C16.6488 16.8744 16.6451 16.899 16.6414 16.9234C16.5776 17.3465 16.5227 17.7107 16.3391 18.0716C16.1924 18.3599 15.925 18.6878 15.6721 18.8896C15.3566 19.1413 15.0694 19.247 14.7394 19.3685C14.7254 19.3736 14.7114 19.3787 14.6973 19.3839C12.544 20.1781 10.291 20.1785 8.14304 19.384C8.12911 19.3789 8.11526 19.3738 8.10148 19.3687C7.77284 19.2474 7.48696 19.1418 7.17191 18.8902C6.9196 18.6886 6.6523 18.3605 6.50592 18.0727C6.32257 17.7121 6.26774 17.3487 6.20406 16.9267C6.20039 16.9024 6.1967 16.8779 6.19295 16.8532L4.80252 7.6981C4.80102 7.68821 4.79952 7.67839 4.79804 7.66861C4.75907 7.41275 4.72535 7.19138 4.75412 6.88563C4.76638 6.75534 4.80131 6.60188 4.8313 6.4877C4.86129 6.37351 4.90627 6.22269 4.95961 6.10319C5.07624 5.84192 5.15171 5.73767 5.26173 5.59718C6.58413 3.90863 9.09626 3.1702 11.4253 3.16895ZM11.4261 4.71582C9.31166 4.71696 7.379 5.40249 6.47958 6.55094C6.43723 6.60502 6.43342 6.611 6.4286 6.61877C6.42366 6.62676 6.40828 6.65279 6.37214 6.73374C6.37255 6.73282 6.37277 6.73236 6.37277 6.73236C6.37277 6.73236 6.36774 6.74491 6.35856 6.7733C6.34877 6.8036 6.33789 6.84085 6.32744 6.88063C6.31699 6.92041 6.30816 6.9582 6.30181 6.9894C6.29585 7.01863 6.29406 7.03204 6.29406 7.03204C6.29406 7.03204 6.2941 7.03153 6.29419 7.03053C6.28449 7.13363 6.28889 7.1829 6.33186 7.46583L7.72228 16.6209C7.80282 17.1512 7.82738 17.2587 7.88474 17.3715C7.93109 17.4626 8.05745 17.6177 8.13735 17.6815C8.24217 17.7653 8.3057 17.7949 8.67967 17.9332C10.4807 18.5994 12.3536 18.5996 14.1621 17.9326C14.5385 17.7938 14.6026 17.764 14.7075 17.6803C14.7877 17.6163 14.9139 17.4615 14.9604 17.3701C15.0179 17.2572 15.0425 17.1493 15.1232 16.6174L16.5128 7.46288C16.5556 7.18066 16.56 7.13147 16.5505 7.02882C16.5505 7.0298 16.5506 7.03031 16.5506 7.03031C16.5506 7.03031 16.5488 7.01694 16.5429 6.9878C16.5366 6.95673 16.5279 6.9191 16.5176 6.87948C16.5072 6.83985 16.4965 6.80276 16.4868 6.77257C16.4777 6.74427 16.4727 6.73175 16.4727 6.73175C16.4727 6.73175 16.4729 6.7322 16.4733 6.73311C16.4375 6.65248 16.4222 6.62649 16.4173 6.61847C16.4125 6.6106 16.4086 6.60452 16.3665 6.55038C15.4701 5.39819 13.5409 4.71469 11.4261 4.71582Z" fill="white"/>
</svg>
