<svg width="23" height="23" viewBox="0 0 23 23" fill="none" xmlns="http://www.w3.org/2000/svg">
<path fill-rule="evenodd" clip-rule="evenodd" d="M14.3983 3.42995H8.5002L8.46222 3.42994C8.25555 3.42987 8.01783 3.4298 7.8098 3.44679C7.57084 3.46632 7.23849 3.51575 6.89216 3.69221C6.4394 3.92291 6.07129 4.29102 5.84059 4.74378C5.66413 5.09011 5.6147 5.42246 5.59517 5.66142C5.57817 5.86946 5.57825 6.10717 5.57832 6.31384L5.57833 6.35182V16.4924L5.57832 16.5304C5.57825 16.7371 5.57817 16.9748 5.59517 17.1828C5.6147 17.4218 5.66413 17.7542 5.84059 18.1005C6.07129 18.5533 6.4394 18.9214 6.89216 19.1521C7.23849 19.3285 7.57084 19.378 7.8098 19.3975C8.01784 19.4145 8.25556 19.4144 8.46223 19.4143L8.5002 19.4143H14.3983L14.4363 19.4143C14.643 19.4144 14.8807 19.4145 15.0887 19.3975C15.3277 19.378 15.6601 19.3285 16.0064 19.1521C16.4591 18.9214 16.8273 18.5533 17.058 18.1005C17.2344 17.7542 17.2838 17.4218 17.3034 17.1828C17.3204 16.9748 17.3203 16.7371 17.3202 16.5305V16.5304L17.3202 16.4924V6.35182L17.3202 6.31384V6.31382C17.3203 6.10716 17.3204 5.86945 17.3034 5.66142C17.2838 5.42246 17.2344 5.09011 17.058 4.74378C16.8273 4.29102 16.4591 3.92291 16.0064 3.69221C15.6601 3.51575 15.3277 3.46632 15.0887 3.44679C14.8807 3.4298 14.643 3.42987 14.4363 3.42994L14.3983 3.42995ZM7.1252 6.35182C7.1252 5.87053 7.1252 5.62988 7.21887 5.44605C7.30126 5.28435 7.43273 5.15288 7.59443 5.07049C7.77826 4.97682 8.0189 4.97682 8.50018 4.97682H8.5002L10.2255 4.97682V13.9553C10.2255 14.2487 10.2255 14.3954 10.2686 14.5263C10.3067 14.6422 10.3691 14.7486 10.4516 14.8384C10.5447 14.94 10.6727 15.0117 10.9287 15.155L10.9288 15.155L15.4451 17.6837C15.4014 17.718 15.3542 17.7483 15.3041 17.7738C15.1203 17.8674 14.8796 17.8674 14.3983 17.8674H8.5002C8.01891 17.8674 7.77826 17.8674 7.59443 17.7738C7.43273 17.6914 7.30126 17.5599 7.21887 17.3982C7.1252 17.2144 7.1252 16.9737 7.1252 16.4924V6.35182Z" fill="black"/>
</svg>
