<svg width="48" height="50" viewBox="0 0 48 50" fill="none" xmlns="http://www.w3.org/2000/svg">
<path fill-rule="evenodd" clip-rule="evenodd" d="M26.4439 8.20023L24.2822 5.99345C23.7697 5.4703 23.482 4.76064 23.482 4.02081C23.482 3.28098 23.7697 2.57157 24.2822 2.04842C24.6698 1.6527 25.0773 1.23678 25.4649 0.841053C25.9774 0.317909 26.6723 0.0241699 27.3973 0.0241699C28.122 0.0241699 28.817 0.317909 29.3294 0.841053C31.9611 3.52759 36.6452 8.3092 39.2769 10.9957C40.3441 12.0852 40.3441 13.8513 39.2769 14.9408C36.6452 17.6273 31.9611 22.4089 29.3294 25.0954C28.817 25.6186 28.122 25.9126 27.3973 25.9126C26.6723 25.9126 25.9774 25.6186 25.4649 25.0954C25.0773 24.6997 24.6698 24.284 24.2822 23.8883C23.7697 23.3652 23.482 22.6555 23.482 21.9157C23.482 21.1758 23.7697 20.4662 24.2822 19.943L26.4312 17.7492H22.5176C21.0086 17.7492 19.785 18.9982 19.785 20.539C19.785 26.4749 19.785 40.2985 19.785 46.2346C19.785 47.7751 18.5615 49.0242 17.0524 49.0242C15.8282 49.0242 14.3878 49.0242 13.1635 49.0242C12.4385 49.0242 11.7436 48.7302 11.2311 48.207C10.7187 47.6839 10.4307 46.9745 10.4307 46.2346C10.4307 40.1043 10.4307 25.2717 10.4307 16.0459C10.4307 13.965 11.2404 11.9695 12.6818 10.498C14.1232 9.02659 16.0781 8.20023 18.1162 8.20023H26.4439Z" fill="black"/>
</svg>
