<svg width="90" height="90" viewBox="0 0 90 90" fill="none" xmlns="http://www.w3.org/2000/svg">
<path fill-rule="evenodd" clip-rule="evenodd" d="M49.5824 15.0173L45.5291 10.964C44.5682 10.0031 44.0287 8.69966 44.0287 7.34078C44.0287 5.98191 44.5682 4.67891 45.5291 3.71803C46.2559 2.99119 47.0199 2.22725 47.7467 1.50041C48.7076 0.539535 50.0106 1.52588e-05 51.3699 1.52588e-05C52.7288 1.52588e-05 54.0318 0.539535 54.9927 1.50041C59.9271 6.43487 68.7097 15.2174 73.6441 20.1519C75.6451 22.1529 75.6451 25.3968 73.6441 27.3978C68.7097 32.3323 59.9271 41.1148 54.9927 46.0493C54.0318 47.0102 52.7288 47.5501 51.3699 47.5501C50.0106 47.5501 48.7076 47.0102 47.7467 46.0493C47.0199 45.3224 46.2559 44.559 45.5291 43.8321C44.5682 42.8712 44.0287 41.5678 44.0287 40.2089C44.0287 38.85 44.5682 37.5466 45.5291 36.5857L49.5586 32.5562H42.2205C39.391 32.5562 37.0969 34.8503 37.0969 37.6803C37.0969 48.5829 37.0969 73.9733 37.0969 84.8764C37.0969 87.7059 34.8028 90 31.9733 90C29.6778 90 26.977 90 24.6816 90C23.3222 90 22.0192 89.46 21.0583 88.4991C20.0975 87.5383 19.5575 86.2353 19.5575 84.8764C19.5575 73.6165 19.5575 46.3731 19.5575 29.4277C19.5575 25.6057 21.0758 21.9403 23.7784 19.2377C26.481 16.5351 30.1464 15.0173 33.9679 15.0173H49.5824Z" fill="url(#paint0_linear)"/>
<defs>
<linearGradient id="paint0_linear" x1="52.1468" y1="1.67431e-05" x2="19.5575" y2="90" gradientUnits="userSpaceOnUse">
<stop stop-color="#FFDF00"/>
<stop offset="1" stop-color="#FF006E"/>
</linearGradient>
</defs>
</svg>
