<svg width="23" height="23" viewBox="0 0 23 23" fill="none" xmlns="http://www.w3.org/2000/svg">
<path fill-rule="evenodd" clip-rule="evenodd" d="M11.508 15.7293C13.8336 15.7293 15.7189 13.844 15.7189 11.5184C15.7189 9.19273 13.8336 7.30743 11.508 7.30743C9.18236 7.30743 7.29706 9.19273 7.29706 11.5184C7.29706 13.844 9.18236 15.7293 11.508 15.7293ZM11.508 17.2762C14.6879 17.2762 17.2658 14.6983 17.2658 11.5184C17.2658 8.33842 14.6879 5.76056 11.508 5.76056C8.32804 5.76056 5.75018 8.33842 5.75018 11.5184C5.75018 14.6983 8.32804 17.2762 11.508 17.2762Z" fill="black"/>
<path fill-rule="evenodd" clip-rule="evenodd" d="M11.4221 3.61212C11.8492 3.61212 12.1955 3.9584 12.1955 4.38556V6.44806C12.1955 6.87522 11.8492 7.2215 11.4221 7.2215C10.9949 7.2215 10.6486 6.87522 10.6486 6.44806V4.38556C10.6486 3.9584 10.9949 3.61212 11.4221 3.61212Z" fill="black"/>
<path fill-rule="evenodd" clip-rule="evenodd" d="M11.4221 15.8152C11.8492 15.8152 12.1955 16.1615 12.1955 16.5887V18.6512C12.1955 19.0783 11.8492 19.4246 11.4221 19.4246C10.9949 19.4246 10.6486 19.0783 10.6486 18.6512V16.5887C10.6486 16.1615 10.9949 15.8152 11.4221 15.8152Z" fill="black"/>
<path fill-rule="evenodd" clip-rule="evenodd" d="M5.83151 5.9278C6.13356 5.62575 6.62327 5.62575 6.92532 5.9278L8.38372 7.38621C8.68577 7.68825 8.68577 8.17797 8.38372 8.48001C8.08168 8.78206 7.59196 8.78206 7.28992 8.48001L5.83151 7.0216C5.52946 6.71956 5.52946 6.22984 5.83151 5.9278Z" fill="black"/>
<path fill-rule="evenodd" clip-rule="evenodd" d="M14.4604 14.5567C14.7625 14.2547 15.2522 14.2547 15.5542 14.5567L17.0126 16.0151C17.3147 16.3172 17.3147 16.8069 17.0126 17.1089C16.7106 17.411 16.2209 17.411 15.9188 17.1089L14.4604 15.6505C14.1584 15.3485 14.1584 14.8588 14.4604 14.5567Z" fill="black"/>
<path fill-rule="evenodd" clip-rule="evenodd" d="M3.51581 11.5184C3.51581 11.0912 3.86209 10.7449 4.28925 10.7449L6.35175 10.7449C6.7789 10.7449 7.12518 11.0912 7.12518 11.5184C7.12518 11.9455 6.7789 12.2918 6.35175 12.2918L4.28925 12.2918C3.86209 12.2918 3.51581 11.9455 3.51581 11.5184Z" fill="black"/>
<path fill-rule="evenodd" clip-rule="evenodd" d="M15.7189 11.5184C15.7189 11.0912 16.0652 10.7449 16.4924 10.7449L18.5549 10.7449C18.982 10.7449 19.3283 11.0912 19.3283 11.5184C19.3283 11.9455 18.982 12.2918 18.5549 12.2918L16.4924 12.2918C16.0652 12.2918 15.7189 11.9455 15.7189 11.5184Z" fill="black"/>
<path fill-rule="evenodd" clip-rule="evenodd" d="M5.83152 17.109C5.52947 16.8069 5.52947 16.3172 5.83152 16.0151L7.28992 14.5567C7.59197 14.2547 8.08168 14.2547 8.38373 14.5567C8.68577 14.8588 8.68577 15.3485 8.38373 15.6505L6.92532 17.109C6.62327 17.411 6.13356 17.411 5.83152 17.109Z" fill="black"/>
<path fill-rule="evenodd" clip-rule="evenodd" d="M14.4604 8.48001C14.1584 8.17797 14.1584 7.68825 14.4604 7.38621L15.9188 5.9278C16.2209 5.62575 16.7106 5.62575 17.0126 5.9278C17.3147 6.22985 17.3147 6.71956 17.0126 7.02161L15.5542 8.48001C15.2522 8.78206 14.7625 8.78206 14.4604 8.48001Z" fill="black"/>
</svg>
