<svg width="55" height="55" viewBox="0 0 55 55" fill="none" xmlns="http://www.w3.org/2000/svg">
<path fill-rule="evenodd" clip-rule="evenodd" d="M27.5 7.94922C28.5679 7.94922 29.4336 8.81492 29.4336 9.88281V13.4219C31.9927 13.7264 34.3459 14.7023 36.3119 16.1685L38.7419 13.7384C39.497 12.9833 40.7213 12.9833 41.4764 13.7384C42.2315 14.4936 42.2315 15.7178 41.4764 16.473L39.0753 18.874C40.6026 20.8338 41.6339 23.1991 41.9806 25.7812H45.332C46.3999 25.7812 47.2656 26.6469 47.2656 27.7148C47.2656 28.7827 46.3999 29.6484 45.332 29.6484H41.9806C41.6339 32.2306 40.6026 34.5959 39.0753 36.5557L41.4764 38.9567C42.2315 39.7119 42.2315 40.9361 41.4764 41.6912C40.7213 42.4464 39.497 42.4464 38.7419 41.6912L36.3119 39.2612C34.3459 40.7274 31.9927 41.7033 29.4336 42.0078V45.5469C29.4336 46.6148 28.5679 47.4805 27.5 47.4805C26.4321 47.4805 25.5664 46.6148 25.5664 45.5469V41.9501C23.0679 41.5762 20.7793 40.5602 18.874 39.0753L16.2581 41.6912C15.503 42.4464 14.2787 42.4464 13.5236 41.6912C12.7685 40.9361 12.7685 39.7119 13.5236 38.9567L16.1685 36.3119C14.7434 34.401 13.7815 32.1244 13.4491 29.6484H9.66797C8.60007 29.6484 7.73438 28.7827 7.73438 27.7148C7.73438 26.6469 8.60007 25.7812 9.66797 25.7812H13.4491C13.7815 23.3053 14.7434 21.0287 16.1685 19.1178L13.5236 16.473C12.7685 15.7178 12.7685 14.4936 13.5236 13.7384C14.2787 12.9833 15.503 12.9833 16.2581 13.7384L18.874 16.3543C20.7793 14.8695 23.0679 13.8535 25.5664 13.4796V9.88281C25.5664 8.81492 26.4321 7.94922 27.5 7.94922ZM38.2422 27.7148C38.2422 21.9008 33.5289 17.1875 27.7148 17.1875C21.9008 17.1875 17.1875 21.9008 17.1875 27.7148C17.1875 33.5289 21.9008 38.2422 27.7148 38.2422C33.5289 38.2422 38.2422 33.5289 38.2422 27.7148Z" fill="#939393"/>
</svg>
