<svg width="23" height="23" viewBox="0 0 23 23" fill="none" xmlns="http://www.w3.org/2000/svg">
<path fill-rule="evenodd" clip-rule="evenodd" d="M11.5164 11.8867C11.304 11.272 11.3688 10.5955 11.6939 10.0323L15.4791 3.47622C15.6351 3.20601 15.9806 3.11344 16.2508 3.26944L16.6119 3.47794C16.8821 3.63394 16.9747 3.97945 16.8187 4.24966L13.0336 10.8057C12.7084 11.3689 12.1549 11.7633 11.5164 11.8867V11.8867V11.8867Z" fill="white"/>
<path d="M13.8809 4.52567L8.24316 4.52566C8.0365 4.52559 7.79878 4.52552 7.59074 4.54251C7.35178 4.56204 7.01943 4.61147 6.6731 4.78793C6.22034 5.01863 5.85223 5.38674 5.62154 5.8395C5.44507 6.18583 5.39564 6.51818 5.37612 6.75714C5.35912 6.96518 5.35919 7.20289 5.35926 7.40956L5.35926 15.7355C5.35919 15.9422 5.35912 16.1799 5.37612 16.388C5.39564 16.6269 5.44507 16.9593 5.62154 17.3056C5.85223 17.7584 6.22034 18.1265 6.6731 18.3572C7.01943 18.5336 7.35178 18.5831 7.59074 18.6026C7.79878 18.6196 8.03651 18.6195 8.24317 18.6195H14.2173C14.4239 18.6195 14.6616 18.6196 14.8697 18.6026C15.1086 18.5831 15.441 18.5336 15.7873 18.3572C16.2401 18.1265 16.6082 17.7584 16.8389 17.3056C17.0154 16.9593 17.0648 16.6269 17.0843 16.388C17.1013 16.1799 17.1012 15.9422 17.1012 15.7356V7.40955C17.1012 7.20289 17.1013 6.96517 17.0843 6.75714C17.0657 6.52986 17.0201 6.2181 16.8639 5.89018L15.5543 8.15845V15.6976C15.5543 16.1789 15.5543 16.4195 15.4606 16.6033C15.3782 16.765 15.2468 16.8965 15.0851 16.9789C14.9012 17.0726 14.6606 17.0726 14.1793 17.0726H8.28115C7.79985 17.0726 7.5592 17.0726 7.37537 16.9789C7.21367 16.8965 7.0822 16.765 6.99981 16.6033C6.90614 16.4195 6.90614 16.1789 6.90614 15.6976V7.44754C6.90614 6.96625 6.90614 6.7256 6.99981 6.54177C7.0822 6.38007 7.21367 6.2486 7.37537 6.16621C7.5592 6.07254 7.79985 6.07254 8.28114 6.07254H12.9878L13.8809 4.52567Z" fill="white"/>
</svg>
