<svg width="23" height="23" viewBox="0 0 23 23" fill="none" xmlns="http://www.w3.org/2000/svg">
<path fill-rule="evenodd" clip-rule="evenodd" d="M11.7082 12.6818C11.4958 12.0672 11.5606 11.3906 11.8858 10.8274L15.6709 4.27134C15.8269 4.00114 16.1724 3.90856 16.4426 4.06456L16.8037 4.27306C17.074 4.42906 17.1665 4.77457 17.0105 5.04478L13.2254 11.6008C12.9002 12.164 12.3467 12.5584 11.7082 12.6818V12.6818V12.6818Z" fill="black"/>
<path d="M14.0727 5.32079L8.43499 5.32078C8.22833 5.32071 7.99061 5.32064 7.78258 5.33763C7.54361 5.35716 7.21126 5.40659 6.86494 5.58305C6.41217 5.81375 6.04406 6.18186 5.81337 6.63462C5.63691 6.98095 5.58747 7.3133 5.56795 7.55226C5.55095 7.7603 5.55103 7.99801 5.55109 8.20468L5.55109 14.9589C5.55103 15.1656 5.55095 15.4033 5.56795 15.6114C5.58747 15.8503 5.63691 16.1827 5.81337 16.529C6.04406 16.9818 6.41217 17.3499 6.86494 17.5806C7.21126 17.757 7.54361 17.8065 7.78258 17.826C7.99062 17.843 8.22834 17.8429 8.43501 17.8429H14.4091C14.6158 17.8429 14.8535 17.843 15.0615 17.826C15.3005 17.8065 15.6328 17.757 15.9792 17.5806C16.4319 17.3499 16.8 16.9818 17.0307 16.529C17.2072 16.1827 17.2566 15.8503 17.2761 15.6114C17.2931 15.4033 17.2931 15.1656 17.293 14.959V8.20467C17.2931 7.99801 17.2931 7.76029 17.2761 7.55226C17.2576 7.32498 17.212 7.01322 17.0557 6.6853L15.7461 8.95357V14.921C15.7461 15.4023 15.7461 15.6429 15.6525 15.8267C15.5701 15.9884 15.4386 16.1199 15.2769 16.2023C15.0931 16.296 14.8524 16.296 14.3711 16.296H8.47298C7.99168 16.296 7.75104 16.296 7.5672 16.2023C7.4055 16.1199 7.27404 15.9884 7.19164 15.8267C7.09798 15.6429 7.09798 15.4023 7.09798 14.921V8.24266C7.09798 7.76137 7.09798 7.52072 7.19164 7.33689C7.27404 7.17519 7.4055 7.04372 7.5672 6.96133C7.75103 6.86766 7.99168 6.86766 8.47297 6.86766H13.1796L14.0727 5.32079Z" fill="black"/>
</svg>
