<?xml version="1.0" encoding="UTF-8"?>
<svg width="301px" height="301px" viewBox="0 0 301 301" version="1.1" xmlns="http://www.w3.org/2000/svg" xmlns:xlink="http://www.w3.org/1999/xlink">
    <defs>
        <path d="M66.059,33.499 L57.209,24.649 C55.111,22.551 53.933,19.705 53.933,16.738 C53.933,13.771 55.111,10.926 57.209,8.828 C58.796,7.241 60.464,5.573 62.051,3.986 C64.149,1.888 66.994,0.71 69.962,0.71 C72.929,0.71 75.774,1.888 77.872,3.986 C88.646,14.76 107.822,33.936 118.596,44.71 C122.965,49.079 122.965,56.162 118.596,60.531 C107.822,71.305 88.646,90.481 77.872,101.255 C75.774,103.353 72.929,104.532 69.962,104.532 C66.994,104.532 64.149,103.353 62.051,101.255 C60.464,99.668 58.796,98.001 57.209,96.414 C55.111,94.316 53.933,91.47 53.933,88.503 C53.933,85.536 55.111,82.69 57.209,80.592 L66.007,71.794 L49.985,71.794 C43.807,71.794 38.798,76.803 38.798,82.982 C38.798,106.787 38.798,162.225 38.798,186.031 C38.798,192.209 33.789,197.218 27.611,197.218 C22.599,197.218 16.702,197.218 11.69,197.218 C8.722,197.218 5.877,196.039 3.779,193.941 C1.681,191.843 0.502,188.998 0.502,186.031 C0.502,161.446 0.502,101.962 0.502,64.963 C0.502,56.618 3.817,48.615 9.718,42.714 C15.619,36.813 23.622,33.499 31.966,33.499 L66.059,33.499 Z" id="path-1"></path>
        <linearGradient x1="52.8981037%" y1="0%" x2="38.2508483%" y2="101.650823%" id="linearGradient-3">
            <stop stop-color="#FFDF00" offset="0%"></stop>
            <stop stop-color="#FF006D" offset="100%"></stop>
        </linearGradient>
    </defs>
    <g id="Page-1" stroke="none" stroke-width="1" fill="none" fill-rule="evenodd">
        <g id="eodiro_logo_r">
            <path d="M102.555408,1 C70.1937077,1 56.0492608,3.73141869 41.3977707,11.5671213 C28.5350022,18.4462053 18.4462053,28.5350022 11.5671213,41.3977707 C3.73141869,56.0492608 1,70.1937077 1,102.555408 L1,198.444592 C1,230.806292 3.73141869,244.950739 11.5671213,259.602229 C18.4462053,272.464998 28.5350022,282.553795 41.3977707,289.432879 C56.0492608,297.268581 70.1937077,300 102.555408,300 L198.444592,300 C230.806292,300 244.950739,297.268581 259.602229,289.432879 C272.464998,282.553795 282.553795,272.464998 289.432879,259.602229 C297.268581,244.950739 300,230.806292 300,198.444592 L300,102.555408 C300,70.1937077 297.268581,56.0492608 289.432879,41.3977707 C282.553795,28.5350022 272.464998,18.4462053 259.602229,11.5671213 C244.950739,3.73141869 230.806292,1 198.444592,1 L102.555408,1 Z" id="Rectangle" stroke="#454545" stroke-width="2" fill="#222222"></path>
            <g id="eodiro_logo" transform="translate(102.000000, 52.000000)">
                <mask id="mask-2" fill="white">
                    <use xlink:href="#path-1"></use>
                </mask>
                <g id="Clip-4"></g>
                <path d="M66.059,33.499 L57.209,24.649 C55.111,22.551 53.933,19.705 53.933,16.738 C53.933,13.771 55.111,10.926 57.209,8.828 C58.796,7.241 60.464,5.573 62.051,3.986 C64.149,1.888 66.994,0.71 69.962,0.71 C72.929,0.71 75.774,1.888 77.872,3.986 C88.646,14.76 107.822,33.936 118.596,44.71 C122.965,49.079 122.965,56.162 118.596,60.531 C107.822,71.305 88.646,90.481 77.872,101.255 C75.774,103.353 72.929,104.532 69.962,104.532 C66.994,104.532 64.149,103.353 62.051,101.255 C60.464,99.668 58.796,98.001 57.209,96.414 C55.111,94.316 53.933,91.47 53.933,88.503 C53.933,85.536 55.111,82.69 57.209,80.592 L66.007,71.794 L49.985,71.794 C43.807,71.794 38.798,76.803 38.798,82.982 C38.798,106.787 38.798,162.225 38.798,186.031 C38.798,192.209 33.789,197.218 27.611,197.218 C22.599,197.218 16.702,197.218 11.69,197.218 C8.722,197.218 5.877,196.039 3.779,193.941 C1.681,191.843 0.502,188.998 0.502,186.031 C0.502,161.446 0.502,101.962 0.502,64.963 C0.502,56.618 3.817,48.615 9.718,42.714 C15.619,36.813 23.622,33.499 31.966,33.499 L66.059,33.499 Z" id="Fill-3" fill="url(#linearGradient-3)" mask="url(#mask-2)"></path>
            </g>
        </g>
    </g>
</svg>
