<svg width="128" height="129" viewBox="0 0 128 129" fill="none" xmlns="http://www.w3.org/2000/svg">
<g clip-path="url(#clip0)">
<path d="M0 49.5856C0 32.3808 0 23.7784 3.34828 17.2071C6.29351 11.4267 10.9931 6.72716 16.7734 3.78193C23.3448 0.433655 31.9472 0.433655 49.152 0.433655H78.848C96.0528 0.433655 104.655 0.433655 111.227 3.78193C117.007 6.72716 121.706 11.4267 124.652 17.2071C128 23.7784 128 32.3808 128 49.5857V79.2817C128 96.4865 128 105.089 124.652 111.66C121.706 117.441 117.007 122.14 111.227 125.085C104.655 128.434 96.0528 128.434 78.848 128.434H49.152C31.9472 128.434 23.3448 128.434 16.7734 125.085C10.9931 122.14 6.29351 117.441 3.34828 111.66C0 105.089 0 96.4865 0 79.2817V49.5856Z" fill="url(#paint0_linear)"/>
<ellipse cx="63.5663" cy="45.7878" rx="17.7786" ry="17.7786" fill="white"/>
<path fill-rule="evenodd" clip-rule="evenodd" d="M97.7029 98.2562C97.7822 97.5415 97.8226 96.8184 97.8226 96.0881C97.8226 81.9586 82.6797 70.5043 64 70.5043C45.3203 70.5043 30.1774 81.9586 30.1774 96.0881C30.1774 96.8184 30.2178 97.5415 30.2971 98.2562H97.7029Z" fill="white"/>
</g>
<defs>
<linearGradient id="paint0_linear" x1="64" y1="0.433655" x2="64" y2="128.434" gradientUnits="userSpaceOnUse">
<stop stop-color="#7B5AFF"/>
<stop offset="1" stop-color="#5F14BE"/>
</linearGradient>
<clipPath id="clip0">
<path d="M0 0.433655H128V128.434H0V0.433655Z" fill="white"/>
</clipPath>
</defs>
</svg>
