<svg width="128" height="129" viewBox="0 0 128 129" fill="none" xmlns="http://www.w3.org/2000/svg">
<g clip-path="url(#clip0)">
<path d="M0 49.611C0 32.4062 0 23.8038 3.34828 17.2324C6.29351 11.4521 10.9931 6.75249 16.7734 3.80726C23.3448 0.458984 31.9472 0.458984 49.152 0.458984H78.848C96.0528 0.458984 104.655 0.458984 111.227 3.80726C117.007 6.75249 121.706 11.4521 124.652 17.2324C128 23.8038 128 32.4062 128 49.611V79.307C128 96.5118 128 105.114 124.652 111.686C121.706 117.466 117.007 122.165 111.227 125.111C104.655 128.459 96.0528 128.459 78.848 128.459H49.152C31.9472 128.459 23.3448 128.459 16.7734 125.111C10.9931 122.165 6.29351 117.466 3.34828 111.686C0 105.114 0 96.5118 0 79.307V49.611Z" fill="url(#paint0_linear)"/>
<path fill-rule="evenodd" clip-rule="evenodd" d="M65.4439 70.4223C64.3723 67.3209 64.6991 63.9071 66.3398 61.0654L85.4389 27.9848C86.226 26.6214 87.9694 26.1542 89.3328 26.9414L91.155 27.9934C92.5184 28.7806 92.9855 30.524 92.1984 31.8874L73.0993 64.968C71.4586 67.8097 68.6656 69.7997 65.4439 70.4223V70.4223V70.4223Z" fill="black"/>
<path d="M77.3746 33.2801L48.9279 33.28C47.8851 33.2797 46.6856 33.2793 45.6359 33.3651C44.4302 33.4636 42.7532 33.713 41.0057 34.6034C38.7212 35.7674 36.8637 37.6248 35.6997 39.9094C34.8093 41.6569 34.5599 43.3339 34.4614 44.5396C34.3756 45.5893 34.376 46.7888 34.3763 47.8316L34.3763 81.9123C34.376 82.9551 34.3756 84.1546 34.4614 85.2043C34.5599 86.41 34.8093 88.087 35.6997 89.8345C36.8637 92.119 38.7212 93.9765 41.0057 95.1405C42.7532 96.0309 44.4302 96.2803 45.6359 96.3788C46.6857 96.4646 47.8852 96.4642 48.928 96.4639H79.072C80.1148 96.4642 81.3143 96.4646 82.364 96.3788C83.5698 96.2803 85.2467 96.0309 86.9942 95.1405C89.2788 93.9765 91.1362 92.119 92.3002 89.8345C93.1906 88.087 93.4401 86.41 93.5386 85.2043C93.6243 84.1546 93.624 82.9551 93.6236 81.9124V47.8316C93.624 46.7888 93.6243 45.5893 93.5386 44.5396C93.4449 43.3928 93.2147 41.8197 92.4263 40.1651L85.8184 51.6104V81.7206C85.8184 84.1491 85.8184 85.3634 85.3457 86.291C84.93 87.1069 84.2666 87.7703 83.4507 88.186C82.5232 88.6586 81.3089 88.6586 78.8804 88.6586H49.1196C46.691 88.6586 45.4768 88.6586 44.5492 88.186C43.7333 87.7703 43.0699 87.1069 42.6542 86.291C42.1816 85.3634 42.1816 84.1491 42.1816 81.7206V48.0232C42.1816 45.5947 42.1816 44.3805 42.6542 43.4529C43.0699 42.637 43.7333 41.9736 44.5492 41.5579C45.4768 41.0853 46.691 41.0853 49.1195 41.0853H72.8682L77.3746 33.2801Z" fill="black"/>
</g>
<defs>
<linearGradient id="paint0_linear" x1="64" y1="0.458984" x2="64" y2="128.459" gradientUnits="userSpaceOnUse">
<stop stop-color="#FFCF26"/>
<stop offset="0.0001" stop-color="#FFD029"/>
<stop offset="1" stop-color="#FF9922"/>
</linearGradient>
<clipPath id="clip0">
<rect width="128" height="128" fill="white" transform="translate(0 0.458984)"/>
</clipPath>
</defs>
</svg>
