<svg width="128" height="129" viewBox="0 0 128 129" fill="none" xmlns="http://www.w3.org/2000/svg">
<g clip-path="url(#clip0)">
<path d="M3.05176e-05 49.791C3.05176e-05 32.5862 3.05176e-05 23.9838 3.34831 17.4124C6.29354 11.6321 10.9931 6.93255 16.7734 3.98732C23.3448 0.639038 31.9472 0.639038 49.152 0.639038H78.848C96.0528 0.639038 104.655 0.639038 111.227 3.98732C117.007 6.93255 121.707 11.6321 124.652 17.4124C128 23.9838 128 32.5862 128 49.791V79.487C128 96.6919 128 105.294 124.652 111.866C121.707 117.646 117.007 122.346 111.227 125.291C104.655 128.639 96.0528 128.639 78.848 128.639H49.152C31.9472 128.639 23.3448 128.639 16.7734 125.291C10.9931 122.346 6.29354 117.646 3.34831 111.866C3.05176e-05 105.294 3.05176e-05 96.6919 3.05176e-05 79.487V49.791Z" fill="url(#paint0_linear)"/>
<path fill-rule="evenodd" clip-rule="evenodd" d="M65.4439 70.6024C64.3723 67.501 64.6991 64.0871 66.3398 61.2454L85.4389 28.1648C86.2261 26.8014 87.9694 26.3343 89.3329 27.1215L91.155 28.1735C92.5184 28.9607 92.9856 30.704 92.1984 32.0674L73.0993 65.148C71.4587 67.9897 68.6656 69.9797 65.4439 70.6024V70.6024V70.6024Z" fill="white"/>
<path d="M77.3746 33.4601L48.9279 33.4601C47.8851 33.4597 46.6857 33.4593 45.636 33.5451C44.4302 33.6436 42.7532 33.8931 41.0057 34.7834C38.7212 35.9475 36.8638 37.8049 35.6997 40.0895C34.8093 41.8369 34.5599 43.5139 34.4614 44.7197C34.3756 45.7694 34.376 46.9689 34.3764 48.0116L34.3764 82.0923C34.376 83.1351 34.3756 84.3346 34.4614 85.3843C34.5599 86.5901 34.8093 88.267 35.6997 90.0145C36.8638 92.2991 38.7212 94.1565 41.0057 95.3205C42.7532 96.2109 44.4302 96.4604 45.636 96.5589C46.6857 96.6446 47.8852 96.6443 48.928 96.6439H79.072C80.1148 96.6443 81.3143 96.6446 82.364 96.5589C83.5698 96.4604 85.2468 96.2109 86.9943 95.3205C89.2788 94.1565 91.1362 92.2991 92.3003 90.0145C93.1907 88.267 93.4401 86.5901 93.5386 85.3843C93.6244 84.3347 93.624 83.1352 93.6236 82.0924V48.0116C93.624 46.9689 93.6244 45.7693 93.5386 44.7197C93.4449 43.5729 93.2147 41.9998 92.4263 40.3452L85.8184 51.7904V81.9007C85.8184 84.3292 85.8184 85.5435 85.3458 86.471C84.93 87.287 84.2667 87.9503 83.4508 88.366C82.5232 88.8387 81.3089 88.8387 78.8804 88.8387H49.1196C46.6911 88.8387 45.4768 88.8387 44.5492 88.366C43.7333 87.9503 43.07 87.287 42.6542 86.471C42.1816 85.5435 42.1816 84.3292 42.1816 81.9007V48.2033C42.1816 45.7748 42.1816 44.5605 42.6542 43.6329C43.07 42.817 43.7333 42.1537 44.5492 41.7379C45.4768 41.2653 46.6911 41.2653 49.1196 41.2653H72.8683L77.3746 33.4601Z" fill="white"/>
</g>
<defs>
<linearGradient id="paint0_linear" x1="64" y1="0.639038" x2="64" y2="128.639" gradientUnits="userSpaceOnUse">
<stop stop-color="#FFCF26"/>
<stop offset="0.0001" stop-color="#FFD029"/>
<stop offset="1" stop-color="#FF9922"/>
</linearGradient>
<clipPath id="clip0">
<rect width="128" height="128" fill="white" transform="translate(3.05176e-05 0.639038)"/>
</clipPath>
</defs>
</svg>
