<svg width="128" height="128" viewBox="0 0 128 128" fill="none" xmlns="http://www.w3.org/2000/svg">
<path d="M0 49.152C0 31.9472 0 23.3448 3.34828 16.7734C6.29351 10.9931 10.9931 6.29351 16.7734 3.34828C23.3448 0 31.9472 0 49.152 0H78.848C96.0528 0 104.655 0 111.227 3.34828C117.007 6.29351 121.706 10.9931 124.652 16.7734C128 23.3448 128 31.9472 128 49.152V78.848C128 96.0528 128 104.655 124.652 111.227C121.706 117.007 117.007 121.706 111.227 124.652C104.655 128 96.0528 128 78.848 128H49.152C31.9472 128 23.3448 128 16.7734 124.652C10.9931 121.706 6.29351 117.007 3.34828 111.227C0 104.655 0 96.0528 0 78.848V49.152Z" fill="url(#paint0_linear)"/>
<path d="M92.5574 54.4335C80.8879 47.6961 65.9662 51.6943 59.2288 63.3638C52.4914 75.0333 56.4897 89.955 68.1592 96.6924C79.8287 103.43 94.7504 99.4315 101.488 87.762C108.225 76.0925 104.227 61.1708 92.5574 54.4335Z" fill="black" fill-opacity="0.4"/>
<path d="M59.8408 96.6924C71.5103 89.955 75.5085 75.0333 68.7711 63.3638C62.0338 51.6943 47.112 47.696 35.4426 54.4334C23.7731 61.1708 19.7748 76.0925 26.5122 87.762C33.2496 99.4315 48.1713 103.43 59.8408 96.6924Z" fill="black" fill-opacity="0.4"/>
<path d="M88.3982 47.2295C88.3982 60.7043 77.4747 71.6277 64 71.6277C50.5252 71.6277 39.6017 60.7043 39.6017 47.2295C39.6017 33.7548 50.5252 22.8313 64 22.8313C77.4747 22.8313 88.3982 33.7548 88.3982 47.2295Z" fill="black" fill-opacity="0.4"/>
<defs>
<linearGradient id="paint0_linear" x1="64" y1="0" x2="64" y2="128" gradientUnits="userSpaceOnUse">
<stop stop-color="#00E3D6"/>
<stop offset="1" stop-color="#00B5DD"/>
</linearGradient>
</defs>
</svg>
