<svg width="128" height="129" viewBox="0 0 128 129" fill="none" xmlns="http://www.w3.org/2000/svg">
<g clip-path="url(#clip0)">
<path d="M0 49.611C0 32.4062 0 23.8038 3.34828 17.2324C6.29351 11.4521 10.9931 6.75249 16.7734 3.80726C23.3448 0.458984 31.9472 0.458984 49.152 0.458984H78.848C96.0528 0.458984 104.655 0.458984 111.227 3.80726C117.007 6.75249 121.706 11.4521 124.652 17.2324C128 23.8038 128 32.4062 128 49.611V79.307C128 96.5118 128 105.114 124.652 111.686C121.706 117.466 117.007 122.165 111.227 125.111C104.655 128.459 96.0528 128.459 78.848 128.459H49.152C31.9472 128.459 23.3448 128.459 16.7734 125.111C10.9931 122.165 6.29351 117.466 3.34828 111.686C0 105.114 0 96.5118 0 79.307V49.611Z" fill="url(#paint0_linear)"/>
<path d="M64 95.0847C64 95.0847 36.7293 80.1077 30.0128 61.1875C26.2125 50.4822 29.4206 42.5057 35.0798 37.7697C40.739 33.0337 49.1275 32.6632 55.3298 36.163C61.5321 39.6627 64 46.6922 64 46.6922C64 46.6922 66.4678 39.6627 72.6701 36.163C78.8724 32.6632 87.2609 33.0337 92.9201 37.7697C98.5794 42.5057 101.787 50.4822 97.9872 61.1875C91.2707 80.1077 64 95.0847 64 95.0847Z" fill="black"/>
</g>
<defs>
<linearGradient id="paint0_linear" x1="64" y1="0.458984" x2="64" y2="128.459" gradientUnits="userSpaceOnUse">
<stop stop-color="#E751FF"/>
<stop offset="1" stop-color="#B221F7"/>
</linearGradient>
<clipPath id="clip0">
<rect width="128" height="128" fill="white" transform="translate(0 0.458984)"/>
</clipPath>
</defs>
</svg>
