<svg width="128" height="129" viewBox="0 0 128 129" fill="none" xmlns="http://www.w3.org/2000/svg">
<g clip-path="url(#clip0)">
<path d="M0 49.5856C0 32.3808 0 23.7784 3.34828 17.207C6.29351 11.4267 10.9931 6.7271 16.7734 3.78187C23.3448 0.433594 31.9472 0.433594 49.152 0.433594H78.848C96.0528 0.433594 104.655 0.433594 111.227 3.78187C117.007 6.7271 121.706 11.4267 124.652 17.207C128 23.7784 128 32.3808 128 49.5856V79.2816C128 96.4864 128 105.089 124.652 111.66C121.706 117.441 117.007 122.14 111.227 125.085C104.655 128.434 96.0528 128.434 78.848 128.434H49.152C31.9472 128.434 23.3448 128.434 16.7734 125.085C10.9931 122.14 6.29351 117.441 3.34828 111.66C0 105.089 0 96.4864 0 79.2816V49.5856Z" fill="url(#paint0_linear)"/>
<path fill-rule="evenodd" clip-rule="evenodd" d="M94.8577 62.7311C102.909 54.6801 102.909 41.6268 94.8577 33.5758C86.8067 25.5248 73.7534 25.5248 65.7024 33.5758C57.6514 41.6268 57.6514 54.6801 65.7024 62.7311C73.7534 70.7821 86.8067 70.7821 94.8577 62.7311ZM86.8634 54.737C90.4994 51.101 90.4994 45.2059 86.8634 41.5699C83.2275 37.934 77.3324 37.934 73.6964 41.5699C70.0604 45.2059 70.0604 51.101 73.6964 54.737C77.3324 58.373 83.2275 58.373 86.8634 54.737Z" fill="black"/>
<path d="M33.1423 95.2912C31.2687 93.4177 31.2687 90.3801 33.1423 88.5066L68.9385 52.7104L75.7231 59.495L39.9269 95.2912C38.0534 97.1648 35.0158 97.1648 33.1423 95.2912Z" fill="black"/>
<rect x="39.7294" y="90.6593" width="16.1508" height="12.6672" rx="3.26885" transform="rotate(-45 39.7294 90.6593)" fill="black"/>
</g>
<defs>
<linearGradient id="paint0_linear" x1="64" y1="0.433594" x2="64" y2="128.434" gradientUnits="userSpaceOnUse">
<stop stop-color="#7B5AFF"/>
<stop offset="1" stop-color="#5F14BE"/>
</linearGradient>
<clipPath id="clip0">
<path d="M0 0.433594H128V128.434H0V0.433594Z" fill="white"/>
</clipPath>
</defs>
</svg>
