<svg width="128" height="128" viewBox="0 0 128 128" fill="none" xmlns="http://www.w3.org/2000/svg">
<g clip-path="url(#clip0)">
<path d="M3.05176e-05 49.152C3.05176e-05 31.9472 3.05176e-05 23.3448 3.34831 16.7734C6.29354 10.9931 10.9931 6.29351 16.7734 3.34828C23.3448 0 31.9472 0 49.152 0H78.848C96.0528 0 104.655 0 111.227 3.34828C117.007 6.29351 121.707 10.9931 124.652 16.7734C128 23.3448 128 31.9472 128 49.152V78.848C128 96.0528 128 104.655 124.652 111.227C121.707 117.007 117.007 121.706 111.227 124.652C104.655 128 96.0529 128 78.848 128H49.152C31.9472 128 23.3448 128 16.7734 124.652C10.9931 121.706 6.29354 117.007 3.34831 111.227C3.05176e-05 104.655 3.05176e-05 96.0528 3.05176e-05 78.848V49.152Z" fill="url(#paint0_linear)"/>
<path fill-rule="evenodd" clip-rule="evenodd" d="M59.2301 80.4777C70.9648 80.4777 80.4777 70.9648 80.4777 59.2301C80.4777 47.4954 70.9648 37.9826 59.2301 37.9826C47.4954 37.9826 37.9826 47.4954 37.9826 59.2301C37.9826 70.9648 47.4954 80.4777 59.2301 80.4777ZM59.2301 88.2829C75.2755 88.2829 88.2829 75.2755 88.2829 59.2301C88.2829 43.1847 75.2755 30.1774 59.2301 30.1774C43.1847 30.1774 30.1774 43.1847 30.1774 59.2301C30.1774 75.2755 43.1847 88.2829 59.2301 88.2829Z" fill="white"/>
<path fill-rule="evenodd" clip-rule="evenodd" d="M74.2544 74.8676C75.7785 73.3436 78.2495 73.3436 79.7735 74.8676L94.4912 89.5853C96.0153 91.1094 96.0153 93.5804 94.4912 95.1044C92.9671 96.6285 90.4961 96.6285 88.9721 95.1044L74.2544 80.3868C72.7303 78.8627 72.7303 76.3917 74.2544 74.8676Z" fill="white"/>
</g>
<defs>
<linearGradient id="paint0_linear" x1="64" y1="0" x2="64" y2="128" gradientUnits="userSpaceOnUse">
<stop stop-color="#6CCF2F"/>
<stop offset="1" stop-color="#02BA41"/>
</linearGradient>
<clipPath id="clip0">
<path d="M3.05176e-05 0H128V128H3.05176e-05V0Z" fill="white"/>
</clipPath>
</defs>
</svg>
