<svg width="128" height="128" viewBox="0 0 128 128" fill="none" xmlns="http://www.w3.org/2000/svg">
<path d="M36 47L32.3702 43.5613C30.5433 45.4898 30.5433 48.5102 32.3702 50.4387L36 47ZM36 89C33.2386 89 31 91.2386 31 94C31 96.7614 33.2386 99 36 99V89ZM50.3702 69.4387C52.2694 71.4434 55.4341 71.5289 57.4387 69.6298C59.4434 67.7306 59.5289 64.5659 57.6298 62.5613L50.3702 69.4387ZM57.6298 31.4387C59.5289 29.4341 59.4434 26.2694 57.4387 24.3702C55.4341 22.4711 52.2694 22.5566 50.3702 24.5613L57.6298 31.4387ZM36 52H68.5V42H36V52ZM68.5 89H36V99H68.5V89ZM32.3702 50.4387L50.3702 69.4387L57.6298 62.5613L39.6298 43.5613L32.3702 50.4387ZM39.6298 50.4387L57.6298 31.4387L50.3702 24.5613L32.3702 43.5613L39.6298 50.4387ZM87 70.5C87 80.7173 78.7173 89 68.5 89V99C84.2401 99 97 86.2401 97 70.5H87ZM68.5 52C78.7173 52 87 60.2827 87 70.5H97C97 54.7599 84.2401 42 68.5 42V52Z" fill="white"/>
</svg>
