<svg width="518" height="518" viewBox="0 0 518 518" fill="none" xmlns="http://www.w3.org/2000/svg">
<rect width="518" height="518" fill="#FEE100"/>
<path d="M205.63 353V343.17H211.198C217.917 343.17 221.525 339.136 221.525 333.54C221.525 327.986 217.96 323.909 211.269 323.909H200.36V353H205.63ZM210.46 328.312C214.408 328.312 216.156 330.443 216.156 333.54C216.156 336.636 214.408 338.838 210.488 338.838H205.63V328.312H210.46ZM229.838 353L232.239 345.827H243.176L245.591 353H251.216L240.96 323.909H234.455L224.213 353H229.838ZM237.594 329.875H237.821L241.756 341.594H233.659L237.594 329.875ZM263.641 342.148V353H268.897V342.148L279.479 323.909H273.528L266.411 336.778H266.127L259.011 323.909H253.059L263.641 342.148ZM281.124 323.909L289.334 353H294.533L300.371 332.588H300.598L306.422 353H311.621L319.831 323.909H314.163L308.922 345.301H308.666L303.055 323.909H297.899L292.303 345.287H292.033L286.791 323.909H281.124ZM108.661 401H114.13L126.488 376.412V371.909H106.672V376.312H121.033V376.511L108.661 401ZM141.172 371.426C134.865 371.398 130.674 375.716 130.674 381.455C130.674 386.966 134.595 390.929 139.694 390.929C142.833 390.929 145.561 389.409 146.967 386.909H147.166C147.152 393.131 144.893 396.838 140.873 396.838C138.359 396.838 136.669 395.389 136.143 393.074H130.958C131.555 397.889 135.362 401.398 140.873 401.398C147.848 401.398 152.265 395.574 152.28 385.56C152.265 374.892 146.754 371.469 141.172 371.426ZM141.186 375.688C144.297 375.688 146.583 378.273 146.583 381.312C146.583 384.338 144.197 386.923 141.129 386.923C138.032 386.923 135.788 384.48 135.788 381.341C135.788 378.173 138.103 375.688 141.186 375.688ZM158.075 401H163.544L175.902 376.412V371.909H156.086V376.312H170.447V376.511L158.075 401ZM190.586 371.426C184.279 371.398 180.088 375.716 180.088 381.455C180.088 386.966 184.009 390.929 189.108 390.929C192.248 390.929 194.975 389.409 196.381 386.909H196.58C196.566 393.131 194.307 396.838 190.287 396.838C187.773 396.838 186.083 395.389 185.557 393.074H180.373C180.969 397.889 184.776 401.398 190.287 401.398C197.262 401.398 201.679 395.574 201.694 385.56C201.679 374.892 196.168 371.469 190.586 371.426ZM190.6 375.688C193.711 375.688 195.998 378.273 195.998 381.312C195.998 384.338 193.611 386.923 190.543 386.923C187.446 386.923 185.202 384.48 185.202 381.341C185.202 378.173 187.517 375.688 190.6 375.688ZM219.705 384.338H206.608V388.571H219.705V384.338ZM236.889 371.909H231.875L224.645 376.554V381.384L231.449 377.037H231.619V401H236.889V371.909ZM254.716 401.398C260.937 401.398 265.468 397.832 265.454 392.918C265.468 389.281 263.196 386.668 259.119 386.085V385.858C262.272 385.176 264.389 382.832 264.375 379.565C264.389 375.134 260.61 371.511 254.801 371.511C249.147 371.511 244.772 374.878 244.659 379.75H249.73C249.815 377.307 252.088 375.787 254.772 375.787C257.485 375.787 259.289 377.435 259.275 379.878C259.289 382.42 257.187 384.111 254.176 384.111H251.605V388.173H254.176C257.855 388.173 260.042 390.02 260.028 392.648C260.042 395.219 257.812 396.98 254.701 396.98C251.775 396.98 249.517 395.46 249.389 393.088H244.048C244.19 398.003 248.579 401.398 254.716 401.398ZM283.611 384.338H270.515V388.571H283.611V384.338ZM299.076 401.398C305.227 401.398 309.517 397.222 309.517 391.44C309.517 385.844 305.625 381.81 300.341 381.81C297.983 381.81 295.895 382.747 294.815 384.026H294.645L295.483 376.312H307.997V371.909H291.122L289.602 386.909L294.36 387.69C295.341 386.611 297.187 385.886 298.934 385.901C302.13 385.915 304.431 388.273 304.417 391.568C304.431 394.821 302.187 397.136 299.076 397.136C296.449 397.136 294.332 395.474 294.147 393.088H289.034C289.176 397.918 293.395 401.398 299.076 401.398ZM324.389 401.398C330.539 401.398 334.829 397.222 334.829 391.44C334.829 385.844 330.937 381.81 325.653 381.81C323.295 381.81 321.207 382.747 320.128 384.026H319.957L320.795 376.312H333.309V371.909H316.434L314.914 386.909L319.673 387.69C320.653 386.611 322.5 385.886 324.247 385.901C327.443 385.915 329.744 388.273 329.73 391.568C329.744 394.821 327.5 397.136 324.389 397.136C321.761 397.136 319.645 395.474 319.46 393.088H314.346C314.488 397.918 318.707 401.398 324.389 401.398ZM339.588 401H359.531V396.597H346.86V396.398L351.875 391.298C357.528 385.872 359.091 383.23 359.091 379.949C359.091 375.077 355.128 371.511 349.275 371.511C343.508 371.511 339.417 375.091 339.417 380.616H344.431C344.431 377.648 346.306 375.787 349.204 375.787C351.974 375.787 354.034 377.477 354.034 380.219C354.034 382.648 352.556 384.381 349.687 387.293L339.588 397.193V401ZM374.545 401.398C380.696 401.398 384.985 397.222 384.985 391.44C384.985 385.844 381.093 381.81 375.809 381.81C373.451 381.81 371.363 382.747 370.284 384.026H370.113L370.951 376.312H383.466V371.909H366.591L365.071 386.909L369.829 387.69C370.809 386.611 372.656 385.886 374.403 385.901C377.599 385.915 379.9 388.273 379.886 391.568C379.9 394.821 377.656 397.136 374.545 397.136C371.917 397.136 369.801 395.474 369.616 393.088H364.503C364.645 397.918 368.863 401.398 374.545 401.398ZM400.397 401.398C406.676 401.44 410.895 397.122 410.88 391.369C410.895 385.872 406.974 381.895 401.875 381.895C398.75 381.895 395.994 383.415 394.602 385.915H394.403C394.417 379.707 396.662 375.986 400.696 375.986C403.196 375.986 404.886 377.449 405.426 379.75H410.61C409.985 374.977 406.193 371.426 400.696 371.426C393.707 371.426 389.289 377.25 389.289 387.278C389.289 397.946 394.815 401.369 400.397 401.398ZM400.369 397.136C397.258 397.136 394.985 394.565 394.971 391.526C395 388.472 397.358 385.915 400.44 385.915C403.522 385.915 405.781 388.358 405.767 391.483C405.781 394.665 403.451 397.136 400.369 397.136Z" fill="#281D20"/>
<g clip-path="url(#clip0)">
<path fill-rule="evenodd" clip-rule="evenodd" d="M223.955 125.238H271.449C287.367 125.238 302.162 134.542 304.167 153.337C306.112 171.575 291.776 181.432 290.924 182C291.776 182.568 306.112 192.425 304.167 210.663C302.162 229.458 287.367 238.762 271.449 238.762H223.955C222.619 238.762 221.951 238.762 221.441 238.502C220.992 238.273 220.627 237.908 220.399 237.459C220.139 236.949 220.139 236.281 220.139 234.945V129.055C220.139 127.719 220.139 127.051 220.399 126.541C220.627 126.092 220.992 125.727 221.441 125.498C221.951 125.238 222.619 125.238 223.955 125.238ZM264.742 156.501H255.49V207.499H264.742V156.501Z" fill="#281D20"/>
</g>
<defs>
<clipPath id="clip0">
<rect width="113.524" height="113.524" fill="white" transform="translate(202 125)"/>
</clipPath>
</defs>
</svg>
