<svg width="114" height="114" viewBox="0 0 114 114" fill="none" xmlns="http://www.w3.org/2000/svg">
<g clip-path="url(#clip0)">
<path fill-rule="evenodd" clip-rule="evenodd" d="M21.9554 0.238235H69.449C85.3674 0.238235 100.162 9.54175 102.167 28.3367C104.112 46.5747 89.7757 56.4318 88.9242 57C89.7757 57.5682 104.112 67.4253 102.167 85.6633C100.162 104.458 85.3674 113.762 69.449 113.762H21.9554C20.6194 113.762 19.9514 113.762 19.4411 113.502C18.9923 113.273 18.6274 112.908 18.3987 112.459C18.1387 111.949 18.1387 111.281 18.1387 109.945V4.05493C18.1387 2.71896 18.1387 2.05098 18.3987 1.54071C18.6274 1.09186 18.9923 0.726932 19.4411 0.498232C19.9514 0.238235 20.6194 0.238235 21.9554 0.238235ZM62.7416 31.5013H53.4899V82.4987H62.7416V31.5013Z" fill="#281D20"/>
</g>
<defs>
<clipPath id="clip0">
<rect width="113.524" height="113.524" fill="white"/>
</clipPath>
</defs>
</svg>
