<svg width="128" height="128" viewBox="0 0 128 128" fill="none" xmlns="http://www.w3.org/2000/svg">
<path fill-rule="evenodd" clip-rule="evenodd" d="M96.4439 41.4543C102.626 39.3037 105.072 31.8195 100.106 27.5557C95.4425 23.5515 90.0118 20.4567 84.0872 18.4796C74.0251 15.1218 63.1005 15.1757 53.008 18.6329C42.9154 22.0901 34.2189 28.7575 28.2672 37.6009C22.3154 46.4444 19.4411 56.9697 20.09 67.5444C20.7389 78.1191 24.8747 88.1523 31.856 96.0878C38.8373 104.023 48.274 109.418 58.7024 111.434C69.1308 113.451 79.9682 111.977 89.5338 107.241C96.6799 103.704 102.818 98.4929 107.446 92.1095C110.202 88.3084 109.005 83.1422 105.351 80.1943L83.1342 62.2711C77.0261 57.3435 78.7152 47.6219 86.1273 45.0433L96.4439 41.4543ZM49.4007 45.781C49.4007 49.3708 46.4905 52.281 42.9007 52.281C39.3108 52.281 36.4007 49.3708 36.4007 45.781C36.4007 42.1911 39.3108 39.281 42.9007 39.281C46.4905 39.281 49.4007 42.1911 49.4007 45.781ZM81.9007 99.281C87.1474 99.281 91.4007 95.0277 91.4007 89.781C91.4007 84.5343 87.1474 80.281 81.9007 80.281C76.654 80.281 72.4007 84.5343 72.4007 89.781C72.4007 95.0277 76.654 99.281 81.9007 99.281ZM46.4007 69.781C46.4007 73.9231 43.0428 77.281 38.9007 77.281C34.7586 77.281 31.4007 73.9231 31.4007 69.781C31.4007 65.6389 34.7586 62.281 38.9007 62.281C43.0428 62.281 46.4007 65.6389 46.4007 69.781ZM54.4007 99.281C58.819 99.281 62.4007 95.6993 62.4007 91.281C62.4007 86.8627 58.819 83.281 54.4007 83.281C49.9824 83.281 46.4007 86.8627 46.4007 91.281C46.4007 95.6993 49.9824 99.281 54.4007 99.281Z" fill="black"/>
</svg>
