<svg width="128" height="128" viewBox="0 0 128 128" fill="none" xmlns="http://www.w3.org/2000/svg">
<path fill-rule="evenodd" clip-rule="evenodd" d="M51.8342 30.5H50.4963C46.7938 30.5 43.5172 32.8967 42.3957 36.4252L21.7352 101.425C19.9928 106.907 24.084 112.5 29.8358 112.5H79.5037C83.2062 112.5 86.4828 110.103 87.6044 106.575L108.265 41.5748C109.572 37.4618 107.595 33.286 104.097 31.4572C104.064 31.8208 103.991 32.1869 103.874 32.5499L97.0641 53.7051L80.9332 104.454C80.7353 105.077 80.1571 105.5 79.5037 105.5H29.8358C28.8208 105.5 28.0988 104.513 28.4063 103.546L37.1596 76.0068C37.0772 75.299 37.1453 74.5643 37.3835 73.8496L47.3162 44.0531L49.0668 38.5456C49.1202 38.3775 49.2014 38.224 49.3042 38.0894L51.8342 30.5Z" fill="black"/>
<path d="M40.7222 27.4668C41.3879 25.4007 43.3106 24 45.4814 24L95.1362 24C98.5278 24 100.935 27.305 99.8953 30.5332L79.2778 94.5332C78.6122 96.5993 76.6894 98 74.5186 98H24.8638C21.4722 98 19.0647 94.695 20.1047 91.4668L40.7222 27.4668Z" fill="black"/>
</svg>
