<svg width="128" height="128" viewBox="0 0 128 128" fill="none" xmlns="http://www.w3.org/2000/svg">
<path d="M96.9288 52.9691C83.473 45.2004 66.2672 49.8107 58.4985 63.2665C50.7298 76.7222 55.3401 93.9281 68.7959 101.697C82.2517 109.465 99.4575 104.855 107.226 91.3994C114.995 77.9436 110.385 60.7378 96.9288 52.9691Z" fill="black" fill-opacity="0.4"/>
<path d="M59.2041 101.697C72.6599 93.9281 77.2702 76.7222 69.5015 63.2664C61.7328 49.8106 44.527 45.2003 31.0712 52.9691C17.6154 60.7378 13.0051 77.9436 20.7738 91.3994C28.5425 104.855 45.7483 109.465 59.2041 101.697Z" fill="black" fill-opacity="0.4"/>
<path d="M92.1329 44.6624C92.1329 60.1998 79.5374 72.7953 64 72.7953C48.4626 72.7953 35.867 60.1998 35.867 44.6624C35.867 29.125 48.4626 16.5294 64 16.5294C79.5374 16.5294 92.1329 29.125 92.1329 44.6624Z" fill="black" fill-opacity="0.4"/>
</svg>
