<svg width="128" height="128" viewBox="0 0 128 128" fill="none" xmlns="http://www.w3.org/2000/svg">
<g clip-path="url(#clip0)">
<path d="M20.0672 3.44299C15.4766 -1.14766 8.03364 -1.14766 3.44299 3.44299C-1.14766 8.03364 -1.14766 15.4766 3.44299 20.0672L47.3758 64L3.44299 107.933C-1.14766 112.523 -1.14766 119.966 3.44299 124.557C8.03364 129.148 15.4766 129.148 20.0672 124.557L64 80.6242L107.933 124.557C112.523 129.148 119.966 129.148 124.557 124.557C129.148 119.966 129.148 112.523 124.557 107.933L80.6242 64L124.557 20.0672C129.148 15.4766 129.148 8.03364 124.557 3.44299C119.966 -1.14766 112.523 -1.14766 107.933 3.44299L64 47.3758L20.0672 3.44299Z" fill="black"/>
</g>
<defs>
<clipPath id="clip0">
<rect width="128" height="128" fill="white"/>
</clipPath>
</defs>
</svg>
