<svg width="128" height="128" viewBox="0 0 128 128" fill="none" xmlns="http://www.w3.org/2000/svg">
<path fill-rule="evenodd" clip-rule="evenodd" d="M38.6252 47.8847C43.3887 47.8847 47.2504 44.0231 47.2504 39.2595C47.2504 34.4959 43.3887 30.6343 38.6252 30.6343C33.8616 30.6343 30 34.4959 30 39.2595C30 44.0231 33.8616 47.8847 38.6252 47.8847ZM38.6252 54.8847C47.2547 54.8847 54.2504 47.8891 54.2504 39.2595C54.2504 30.6299 47.2547 23.6343 38.6252 23.6343C29.9956 23.6343 23 30.6299 23 39.2595C23 47.8891 29.9956 54.8847 38.6252 54.8847Z" fill="white"/>
<path d="M75.8784 24.6409C84.1287 6.7953 108.144 21.0787 97.0088 36.8405L55.2637 95.9443C54.3716 97.2073 53.9255 97.8389 53.3354 98.1705C52.8157 98.4626 52.2208 98.5932 51.6266 98.5457C50.9518 98.4918 50.2822 98.1052 48.943 97.332L47.5241 96.5128C46.1849 95.7396 45.5153 95.353 45.1312 94.7956C44.7929 94.3047 44.6086 93.7242 44.6017 93.1281C44.5939 92.4513 44.9178 91.7492 45.5656 90.345L75.8784 24.6409Z" fill="white"/>
<rect x="36.5702" y="97.1167" width="20.0073" height="8" rx="3.83727" transform="rotate(30 36.5702 97.1167)" fill="white"/>
</svg>
