<svg width="128" height="128" viewBox="0 0 128 128" fill="none" xmlns="http://www.w3.org/2000/svg">
<path d="M0 49.152C0 31.9472 0 23.3448 3.34828 16.7734C6.29351 10.9931 10.9931 6.29351 16.7734 3.34828C23.3448 0 31.9472 0 49.152 0H78.848C96.0528 0 104.655 0 111.227 3.34828C117.007 6.29351 121.706 10.9931 124.652 16.7734C128 23.3448 128 31.9472 128 49.152V78.848C128 96.0528 128 104.655 124.652 111.227C121.706 117.007 117.007 121.706 111.227 124.652C104.655 128 96.0528 128 78.848 128H49.152C31.9472 128 23.3448 128 16.7734 124.652C10.9931 121.706 6.29351 117.007 3.34828 111.227C0 104.655 0 96.0528 0 78.848V49.152Z" fill="url(#paint0_linear)"/>
<path fill-rule="evenodd" clip-rule="evenodd" d="M65.4439 69.9633C64.3723 66.8619 64.6991 63.4481 66.3398 60.6064L85.4389 27.5258C86.226 26.1624 87.9694 25.6952 89.3328 26.4824L91.155 27.5344C92.5184 28.3216 92.9855 30.065 92.1984 31.4284L73.0993 64.509C71.4586 67.3507 68.6656 69.3407 65.4439 69.9633V69.9633V69.9633Z" fill="white"/>
<path d="M77.3746 32.821L48.9279 32.821C47.8851 32.8207 46.6856 32.8203 45.6359 32.906C44.4302 33.0045 42.7532 33.254 41.0057 34.1444C38.7212 35.3084 36.8637 37.1658 35.6997 39.4504C34.8093 41.1979 34.5599 42.8748 34.4614 44.0806C34.3756 45.1303 34.376 46.3298 34.3763 47.3726L34.3763 81.4533C34.376 82.496 34.3756 83.6955 34.4614 84.7452C34.5599 85.951 34.8093 87.628 35.6997 89.3755C36.8637 91.66 38.7212 93.5174 41.0057 94.6815C42.7532 95.5719 44.4302 95.8213 45.6359 95.9198C46.6857 96.0056 47.8852 96.0052 48.928 96.0049H79.072C80.1148 96.0052 81.3143 96.0056 82.364 95.9198C83.5698 95.8213 85.2467 95.5719 86.9942 94.6815C89.2788 93.5174 91.1362 91.66 92.3002 89.3755C93.1906 87.628 93.4401 85.951 93.5386 84.7452C93.6243 83.6956 93.624 82.4961 93.6236 81.4534V47.3725C93.624 46.3298 93.6243 45.1303 93.5386 44.0806C93.4449 42.9338 93.2147 41.3607 92.4263 39.7061L85.8184 51.1513V81.2616C85.8184 83.6901 85.8184 84.9044 85.3457 85.832C84.93 86.6479 84.2666 87.3112 83.4507 87.727C82.5232 88.1996 81.3089 88.1996 78.8804 88.1996H49.1196C46.691 88.1996 45.4768 88.1996 44.5492 87.727C43.7333 87.3112 43.0699 86.6479 42.6542 85.832C42.1816 84.9044 42.1816 83.6901 42.1816 81.2616V47.5642C42.1816 45.1357 42.1816 43.9214 42.6542 42.9939C43.0699 42.178 43.7333 41.5146 44.5492 41.0989C45.4768 40.6263 46.691 40.6263 49.1195 40.6263H72.8682L77.3746 32.821Z" fill="white"/>
<defs>
<linearGradient id="paint0_linear" x1="64" y1="0" x2="64" y2="128" gradientUnits="userSpaceOnUse">
<stop stop-color="#FFC700"/>
<stop offset="0.0001" stop-color="#FFC700"/>
<stop offset="1" stop-color="#FF8A00"/>
</linearGradient>
</defs>
</svg>
