<svg width="128" height="128" viewBox="0 0 128 128" fill="none" xmlns="http://www.w3.org/2000/svg">
<path d="M0 49.152C0 31.9472 0 23.3448 3.34828 16.7734C6.29351 10.9931 10.9931 6.29351 16.7734 3.34828C23.3448 0 31.9472 0 49.152 0H78.848C96.0528 0 104.655 0 111.227 3.34828C117.007 6.29351 121.706 10.9931 124.652 16.7734C128 23.3448 128 31.9472 128 49.152V78.848C128 96.0528 128 104.655 124.652 111.227C121.706 117.007 117.007 121.706 111.227 124.652C104.655 128 96.0528 128 78.848 128H49.152C31.9472 128 23.3448 128 16.7734 124.652C10.9931 121.706 6.29351 117.007 3.34828 111.227C0 104.655 0 96.0528 0 78.848V49.152Z" fill="url(#paint0_linear)"/>
<path fill-rule="evenodd" clip-rule="evenodd" d="M64 24.5403C66.1553 24.5403 67.9026 26.2875 67.9026 28.4429V35.5858C73.0678 36.2004 77.8171 38.1701 81.7851 41.1293L86.6897 36.2248C88.2138 34.7007 90.6848 34.7007 92.2088 36.2248C93.7329 37.7488 93.7329 40.2198 92.2088 41.7439L87.3627 46.59C90.4453 50.5455 92.5268 55.3194 93.2265 60.531H99.9907C102.146 60.531 103.893 62.2783 103.893 64.4336C103.893 66.589 102.146 68.3362 99.9907 68.3362H93.2265C92.5268 73.5479 90.4453 78.3218 87.3627 82.2773L92.2088 87.1234C93.7329 88.6474 93.7329 91.1184 92.2088 92.6425C90.6848 94.1665 88.2138 94.1665 86.6897 92.6425L81.7851 87.7379C77.8171 90.6972 73.0678 92.6669 67.9026 93.2814V100.424C67.9026 102.58 66.1553 104.327 64 104.327C61.8446 104.327 60.0974 102.58 60.0974 100.424V93.165C55.0545 92.4103 50.4355 90.3596 46.59 87.3628L41.3102 92.6425C39.7862 94.1665 37.3152 94.1665 35.7911 92.6425C34.267 91.1184 34.267 88.6474 35.7911 87.1234L41.1293 81.7852C38.253 77.9284 36.3116 73.3336 35.6407 68.3362H28.0092C25.8539 68.3362 24.1066 66.589 24.1066 64.4336C24.1066 62.2783 25.8539 60.531 28.0092 60.531H35.6407C36.3116 55.5337 38.253 50.9388 41.1293 47.0821L35.7911 41.7439C34.2671 40.2198 34.2671 37.7488 35.7911 36.2248C37.3152 34.7007 39.7862 34.7007 41.3102 36.2248L46.59 41.5045C50.4355 38.5076 55.0545 36.4569 60.0974 35.7023V28.4429C60.0974 26.2875 61.8446 24.5403 64 24.5403ZM85.6811 64.4336C85.6811 52.6989 76.1683 43.1861 64.4336 43.1861C52.6989 43.1861 43.1861 52.6989 43.1861 64.4336C43.1861 76.1683 52.6989 85.6812 64.4336 85.6812C76.1683 85.6812 85.6811 76.1683 85.6811 64.4336Z" fill="black"/>
<defs>
<linearGradient id="paint0_linear" x1="64" y1="0" x2="64" y2="128" gradientUnits="userSpaceOnUse">
<stop stop-color="#939393"/>
<stop offset="1" stop-color="#636363"/>
</linearGradient>
</defs>
</svg>
