<svg width="128" height="128" viewBox="0 0 128 128" fill="none" xmlns="http://www.w3.org/2000/svg">
<path d="M0 49.152C0 31.9472 0 23.3448 3.34828 16.7734C6.29351 10.9931 10.9931 6.29351 16.7734 3.34828C23.3448 0 31.9472 0 49.152 0H78.848C96.0528 0 104.655 0 111.227 3.34828C117.007 6.29351 121.706 10.9931 124.652 16.7734C128 23.3448 128 31.9472 128 49.152V78.848C128 96.0528 128 104.655 124.652 111.227C121.706 117.007 117.007 121.706 111.227 124.652C104.655 128 96.0528 128 78.848 128H49.152C31.9472 128 23.3448 128 16.7734 124.652C10.9931 121.706 6.29351 117.007 3.34828 111.227C0 104.655 0 96.0528 0 78.848V49.152Z" fill="url(#paint0_linear)"/>
<path fill-rule="evenodd" clip-rule="evenodd" d="M45.4715 50.3768C49.6027 50.3768 52.9517 47.0278 52.9517 42.8966C52.9517 38.7654 49.6027 35.4164 45.4715 35.4164C41.3403 35.4164 37.9913 38.7654 37.9913 42.8966C37.9913 47.0278 41.3403 50.3768 45.4715 50.3768ZM45.4715 56.4475C52.9555 56.4475 59.0224 50.3806 59.0224 42.8966C59.0224 35.4127 52.9555 29.3457 45.4715 29.3457C37.9876 29.3457 31.9206 35.4127 31.9206 42.8966C31.9206 50.3806 37.9876 56.4475 45.4715 56.4475Z" fill="white"/>
<path d="M77.7792 30.2187C84.9342 14.7421 105.761 27.1294 96.1045 40.7987L60.2367 91.5813C59.3446 92.8444 58.8985 93.4759 58.3084 93.8076C57.7887 94.0996 57.1938 94.2302 56.5995 94.1827C55.9248 94.1288 55.2552 93.7422 53.916 92.969L53.6927 92.8401C52.3535 92.0669 51.6839 91.6803 51.2998 91.1229C50.9615 90.632 50.7772 90.0515 50.7703 89.4554C50.7624 88.7786 51.0863 88.0765 51.7341 86.6723L77.7792 30.2187Z" fill="white"/>
<rect x="43.6893" y="93.0731" width="17.3512" height="6.93797" rx="3.46899" transform="rotate(30 43.6893 93.0731)" fill="white"/>
<defs>
<linearGradient id="paint0_linear" x1="64" y1="0" x2="64" y2="128" gradientUnits="userSpaceOnUse">
<stop stop-color="#00E3D6"/>
<stop offset="1" stop-color="#00B5DD"/>
</linearGradient>
</defs>
</svg>
