<svg width="128" height="128" viewBox="0 0 128 128" fill="none" xmlns="http://www.w3.org/2000/svg">
<rect width="128" height="128" rx="30.72" fill="url(#paint0_linear)"/>
<path d="M57.3135 78.8045H66.9474V78.1645C67.0821 70.417 69.3053 66.9474 75.0318 63.4105C81.0613 59.7726 84.7667 54.6525 84.7667 47.0734C84.7667 36.1258 76.4802 28.7151 64.1179 28.7151C52.7661 28.7151 43.6712 35.3511 43.2333 47.4776H53.4735C53.8777 40.3364 58.9641 37.2037 64.1179 37.2037C69.8443 37.2037 74.4928 41.0101 74.4928 46.9723C74.4928 51.9914 71.3601 55.5283 67.3516 58.0209C61.0862 61.861 57.3809 65.6674 57.3135 78.1645V78.8045ZM62.4 99.2848C66.0716 99.2848 69.1369 96.2869 69.1369 92.5479C69.1369 88.8762 66.0716 85.8446 62.4 85.8446C58.6946 85.8446 55.663 88.8762 55.663 92.5479C55.663 96.2869 58.6946 99.2848 62.4 99.2848Z" fill="white"/>
<defs>
<linearGradient id="paint0_linear" x1="64" y1="0" x2="64" y2="128" gradientUnits="userSpaceOnUse">
<stop stop-color="#FF56EE"/>
<stop offset="1" stop-color="#E400DB"/>
</linearGradient>
</defs>
</svg>
