<svg width="128" height="128" viewBox="0 0 128 128" fill="none" xmlns="http://www.w3.org/2000/svg">
<path d="M0 49.152C0 31.9472 0 23.3448 3.34828 16.7734C6.29351 10.9931 10.9931 6.29351 16.7734 3.34828C23.3448 0 31.9472 0 49.152 0H78.848C96.0528 0 104.655 0 111.227 3.34828C117.007 6.29351 121.706 10.9931 124.652 16.7734C128 23.3448 128 31.9472 128 49.152V78.848C128 96.0528 128 104.655 124.652 111.227C121.706 117.007 117.007 121.706 111.227 124.652C104.655 128 96.0528 128 78.848 128H49.152C31.9472 128 23.3448 128 16.7734 124.652C10.9931 121.706 6.29351 117.007 3.34828 111.227C0 104.655 0 96.0528 0 78.848V49.152Z" fill="url(#paint0_linear)"/>
<path d="M64 94.6257C64 94.6257 36.7292 79.6487 30.0128 60.7285C26.2125 50.0232 29.4206 42.0467 35.0798 37.3107C40.739 32.5747 49.1275 32.2042 55.3298 35.704C61.5321 39.2037 64 46.2332 64 46.2332C64 46.2332 66.4678 39.2037 72.6701 35.704C78.8724 32.2042 87.2609 32.5747 92.9201 37.3107C98.5794 42.0467 101.787 50.0232 97.9872 60.7285C91.2707 79.6487 64 94.6257 64 94.6257Z" fill="black"/>
<defs>
<linearGradient id="paint0_linear" x1="64" y1="0" x2="64" y2="128" gradientUnits="userSpaceOnUse">
<stop stop-color="#C41BFF"/>
<stop offset="1" stop-color="#9300ED"/>
</linearGradient>
</defs>
</svg>
