<svg width="128" height="128" viewBox="0 0 128 128" fill="none" xmlns="http://www.w3.org/2000/svg">
<rect width="128" height="128" rx="30.72" fill="url(#paint0_linear)"/>
<path fill-rule="evenodd" clip-rule="evenodd" d="M79.0176 24.1067H49.2568L49.0652 24.1066C48.0224 24.1063 46.8229 24.1059 45.7732 24.1917C44.5674 24.2902 42.8905 24.5396 41.143 25.43C38.8584 26.594 37.001 28.4514 35.837 30.736C34.9466 32.4835 34.6971 34.1605 34.5986 35.3662C34.5129 36.4159 34.5133 37.6154 34.5136 38.6582L34.5136 38.8498V90.0174L34.5136 90.2091C34.5133 91.2518 34.5129 92.4513 34.5986 93.501C34.6971 94.7068 34.9466 96.3837 35.837 98.1312C37.001 100.416 38.8584 102.273 41.143 103.437C42.8905 104.328 44.5674 104.577 45.7732 104.676C46.8229 104.761 48.0224 104.761 49.0652 104.761L49.2568 104.761H79.0177L79.2093 104.761C80.2521 104.761 81.4516 104.761 82.5013 104.676C83.707 104.577 85.384 104.328 87.1315 103.437C89.4161 102.273 91.2735 100.416 92.4375 98.1312C93.3279 96.3837 93.5773 94.7068 93.6758 93.501C93.7616 92.4513 93.7612 91.2519 93.7609 90.2091L93.7608 90.0174V38.8498L93.7609 38.6582C93.7612 37.6154 93.7616 36.4159 93.6758 35.3662C93.5773 34.1605 93.3279 32.4835 92.4375 30.736C91.2735 28.4514 89.4161 26.594 87.1315 25.43C85.384 24.5396 83.707 24.2902 82.5013 24.1917C81.4516 24.1059 80.2521 24.1063 79.2093 24.1066L79.0176 24.1067ZM42.3189 38.8498C42.3189 36.4213 42.3189 35.2071 42.7915 34.2795C43.2072 33.4636 43.8706 32.8002 44.6865 32.3845C45.614 31.9119 46.8283 31.9119 49.2568 31.9119H49.2568L57.9623 31.9119V77.2153C57.9623 78.6958 57.9623 79.436 58.1798 80.0967C58.3723 80.6812 58.687 81.2181 59.103 81.6716C59.5732 82.1842 60.2191 82.5458 61.5108 83.269L84.2994 96.028C84.0788 96.2015 83.8407 96.354 83.588 96.4827C82.6604 96.9554 81.4462 96.9554 79.0177 96.9554H49.2568C46.8283 96.9554 45.614 96.9554 44.6865 96.4827C43.8706 96.067 43.2072 95.4037 42.7915 94.5877C42.3189 93.6602 42.3189 92.4459 42.3189 90.0174V38.8498V38.8498Z" fill="black"/>
<defs>
<linearGradient id="paint0_linear" x1="64" y1="0" x2="64" y2="128" gradientUnits="userSpaceOnUse">
<stop stop-color="#FF7037"/>
<stop offset="1" stop-color="#FF3852"/>
</linearGradient>
</defs>
</svg>
