<svg width="128" height="128" viewBox="0 0 128 128" fill="none" xmlns="http://www.w3.org/2000/svg">
<rect width="128" height="128" rx="30.72" fill="url(#paint0_linear)"/>
<path fill-rule="evenodd" clip-rule="evenodd" d="M59.2301 80.4777C70.9648 80.4777 80.4776 70.9648 80.4776 59.2301C80.4776 47.4954 70.9648 37.9826 59.2301 37.9826C47.4954 37.9826 37.9826 47.4954 37.9826 59.2301C37.9826 70.9648 47.4954 80.4777 59.2301 80.4777ZM59.2301 88.2829C75.2755 88.2829 88.2829 75.2755 88.2829 59.2301C88.2829 43.1847 75.2755 30.1774 59.2301 30.1774C43.1847 30.1774 30.1773 43.1847 30.1773 59.2301C30.1773 75.2755 43.1847 88.2829 59.2301 88.2829Z" fill="black"/>
<path fill-rule="evenodd" clip-rule="evenodd" d="M74.2544 74.8677C75.7784 73.3436 78.2494 73.3436 79.7735 74.8677L94.4912 89.5853C96.0152 91.1094 96.0152 93.5804 94.4912 95.1044C92.9671 96.6285 90.4961 96.6285 88.972 95.1044L74.2544 80.3868C72.7303 78.8627 72.7303 76.3917 74.2544 74.8677Z" fill="black"/>
<defs>
<linearGradient id="paint0_linear" x1="64" y1="0" x2="64" y2="128" gradientUnits="userSpaceOnUse">
<stop stop-color="#22F200"/>
<stop offset="1" stop-color="#14C44F"/>
</linearGradient>
</defs>
</svg>
