<svg width="128" height="128" viewBox="0 0 128 128" fill="none" xmlns="http://www.w3.org/2000/svg">
<path d="M42.0105 83.1312C52.0398 81.1806 61.4523 86.1916 63.0339 94.3235C64.6154 102.455 57.7671 110.629 47.7378 112.579C37.7085 114.53 28.296 109.519 26.7144 101.387C25.1329 93.2553 31.9812 85.0818 42.0105 83.1312Z" fill="white"/>
<rect x="54.2425" y="14.9994" width="9" height="85.9744" rx="4.5" fill="white"/>
<path d="M68.7989 26.0074C69.0509 23.3926 71.3917 21.44 73.9339 22.1017C78.3446 23.2497 82.457 25.3934 85.9434 28.393C90.6379 32.4319 93.9674 37.8247 95.475 43.8313C96.9826 49.8378 96.5944 56.1637 94.3637 61.9409C92.707 66.2313 90.0944 70.063 86.7486 73.1577C84.8202 74.9415 81.8348 74.3258 80.3779 72.1399V72.1399C78.9209 69.954 79.5655 67.031 81.3575 65.1102C83.1338 63.2063 84.5409 60.9703 85.4893 58.5142C87.0127 54.569 87.2778 50.249 86.2483 46.1471C85.2187 42.0452 82.945 38.3625 79.7391 35.6043C77.7432 33.8871 75.447 32.5807 72.9822 31.7413C70.4955 30.8944 68.5469 28.6222 68.7989 26.0074V26.0074Z" fill="white"/>
</svg>
