<svg width="128" height="128" viewBox="0 0 128 128" fill="none" xmlns="http://www.w3.org/2000/svg">
<path d="M82.9793 21.7996C88.4723 23.6327 93.5052 26.5012 97.8258 30.2111C99.1911 31.3835 99.5079 32.8721 99.0897 34.3361C98.6457 35.8907 97.3314 37.4398 95.2939 38.1486L84.9773 41.7376C74.9709 45.2188 72.6907 58.3428 80.9366 64.9951L103.153 82.9183C105.657 84.9381 106.062 88.0553 104.612 90.0551C100.316 95.9812 94.6166 100.82 87.9809 104.105C79.0981 108.502 69.0393 109.868 59.3669 107.998C49.6953 106.128 40.9505 101.127 34.4838 93.776C28.0173 86.4256 24.1848 77.1309 23.5834 67.33C22.982 57.5284 25.6458 47.7645 31.1708 39.5551C36.6961 31.3454 44.771 25.1542 54.1422 21.944C63.5131 18.734 73.6498 18.6863 82.9793 21.7996Z" stroke="black" stroke-width="7"/>
<circle cx="45.8486" cy="47.7964" r="6.5" fill="black"/>
<circle cx="77.8486" cy="87.7964" r="9.5" fill="black"/>
<circle cx="40.8486" cy="68.7964" r="7.5" fill="black"/>
<circle cx="54.3486" cy="88.2964" r="8" fill="black"/>
</svg>
