<svg width="128" height="128" viewBox="0 0 128 128" fill="none" xmlns="http://www.w3.org/2000/svg">
<path d="M61.335 69.5C61.335 69.5 75.6305 60.5 75.0825 51.6042C74.5346 42.7084 65.6693 39.1149 63.1764 34.1501C60.6836 29.1852 65.6305 19 65.6305 19C65.6305 19 53.3403 25.1151 52.1305 35C50.9206 44.8849 58.4496 49.2697 61.335 54.8424C64.2203 60.4152 61.335 69.5 61.335 69.5Z" fill="black"/>
<path d="M94.1254 78.8758C93.8166 78.1965 93.6622 77.8568 93.4209 77.6079C93.2076 77.3879 92.9466 77.2198 92.658 77.1167C92.3316 77 91.9584 77 91.2122 77H36.7878C36.0416 77 35.6684 77 35.342 77.1167C35.0534 77.2198 34.7924 77.3879 34.5791 77.6079C34.3378 77.8568 34.1834 78.1965 33.8746 78.8758L32.6928 81.4758C32.0083 82.9818 31.666 83.7348 31.7721 84.3435C31.8648 84.8753 32.1686 85.3471 32.6144 85.6515C33.1245 86 33.9517 86 35.606 86H92.394C94.0483 86 94.8755 86 95.3856 85.6515C95.8314 85.3471 96.1352 84.8753 96.2279 84.3435C96.334 83.7348 95.9917 82.9818 95.3072 81.4758L94.1254 78.8758Z" fill="black"/>
<path d="M102.307 96.8758C101.998 96.1965 101.844 95.8568 101.603 95.6079C101.389 95.3879 101.128 95.2198 100.84 95.1167C100.513 95 100.14 95 99.394 95H28.606C27.8597 95 27.4866 95 27.1602 95.1167C26.8716 95.2198 26.6106 95.3879 26.3973 95.6079C26.156 95.8568 26.0016 96.1965 25.6928 96.8758L24.0564 100.476C23.3719 101.982 23.0296 102.735 23.1357 103.343C23.2284 103.875 23.5322 104.347 23.978 104.652C24.4882 105 25.3153 105 26.9696 105H101.03C102.685 105 103.512 105 104.022 104.652C104.468 104.347 104.772 103.875 104.864 103.343C104.97 102.735 104.628 101.982 103.944 100.476L102.307 96.8758Z" fill="black"/>
</svg>
