<svg width="128" height="128" viewBox="0 0 128 128" fill="none" xmlns="http://www.w3.org/2000/svg">
<path fill-rule="evenodd" clip-rule="evenodd" d="M68.7875 32.675L64.5528 28.4403C63.5489 27.4364 62.9853 26.0746 62.9853 24.6549C62.9853 23.2352 63.5489 21.8738 64.5528 20.8699C65.3122 20.1106 66.1103 19.3124 66.8697 18.553C67.8736 17.5491 69.2349 16.9855 70.6551 16.9855C72.0748 16.9855 73.4362 17.5491 74.4401 18.553C79.5954 23.7084 88.7711 32.8841 93.9265 38.0395C96.0171 40.13 96.0171 43.5193 93.9265 45.6098C88.7711 50.7652 79.5954 59.9409 74.4401 65.0963C73.4362 66.1002 72.0748 66.6643 70.6551 66.6643C69.2349 66.6643 67.8736 66.1002 66.8697 65.0963C66.1103 64.3369 65.3122 63.5392 64.5528 62.7798C63.5489 61.7759 62.9853 60.4141 62.9853 58.9944C62.9853 57.5747 63.5489 56.2129 64.5528 55.209L68.7627 50.9992H61.0961C58.14 50.9992 55.7432 53.396 55.7432 56.3526C55.7432 67.7433 55.7432 94.2704 55.7432 105.662C55.7432 108.618 53.3463 111.015 50.3902 111.015C47.9919 111.015 45.1702 111.015 42.772 111.015C41.3518 111.015 39.9905 110.45 38.9866 109.447C37.9827 108.443 37.4185 107.081 37.4185 105.662C37.4185 93.8977 37.4185 65.4346 37.4185 47.7305C37.4185 43.7375 39.0047 39.908 41.8284 37.0844C44.652 34.2608 48.4814 32.675 52.474 32.675H68.7875Z" fill="black"/>
</svg>
