<?xml version="1.0" encoding="UTF-8"?>
<svg width="332px" height="332px" viewBox="0 0 332 332" version="1.1" xmlns="http://www.w3.org/2000/svg" xmlns:xlink="http://www.w3.org/1999/xlink">
    <!-- Generator: Sketch 52.6 (67491) - http://www.bohemiancoding.com/sketch -->
    <title>Group</title>
    <desc>Created with Sketch.</desc>
    <defs>
        <linearGradient x1="57.5971334%" y1="0.000166289607%" x2="19.2006621%" y2="101.650334%" id="linearGradient-1">
            <stop stop-color="#FFDF00" offset="0%"></stop>
            <stop stop-color="#FF006E" offset="100%"></stop>
        </linearGradient>
    </defs>
    <g id="Page-1" stroke="none" stroke-width="1" fill="none" fill-rule="evenodd">
        <g id="Group">
            <path d="M89.735982,-3.62544108e-15 L242.264018,3.62544108e-15 C273.467174,-2.10648567e-15 284.782192,3.24889639 296.1896,9.34964463 C307.597007,15.4503929 316.549607,24.402993 322.650355,35.8104004 C328.751104,47.2178078 332,58.5328261 332,89.735982 L332,242.264018 C332,273.467174 328.751104,284.782192 322.650355,296.1896 C316.549607,307.597007 307.597007,316.549607 296.1896,322.650355 C284.782192,328.751104 273.467174,332 242.264018,332 L89.735982,332 C58.5328261,332 47.2178078,328.751104 35.8104004,322.650355 C24.402993,316.549607 15.4503929,307.597007 9.34964463,296.1896 C3.24889639,284.782192 1.40432378e-15,273.467174 -2.41696072e-15,242.264018 L2.41696072e-15,89.735982 C-1.40432378e-15,58.5328261 3.24889639,47.2178078 9.34964463,35.8104004 C15.4503929,24.402993 24.402993,15.4503929 35.8104004,9.34964463 C47.2178078,3.24889639 58.5328261,2.10648567e-15 89.735982,-3.62544108e-15 Z" id="Rectangle" fill="#FFFFFF"></path>
            <g id="eodiro_symbol" transform="translate(110.000000, 55.000000)" fill="url(#linearGradient-1)">
                <path d="M74.5390545,37.2098534 L64.4769702,27.1673407 C62.0917204,24.7858149 60.7513936,21.5573412 60.7513936,18.1896933 C60.7513936,14.8229611 62.0917204,11.5935718 64.4769702,9.21296156 C66.2815033,7.41193836 68.1777769,5.51935324 69.9813927,3.71833004 C72.3675598,1.33771982 75.6023254,0 78.9765364,0 C82.34983,0 85.585513,1.33771982 87.9707627,3.71833004 C100.220855,15.9445948 122.02479,37.706119 134.274882,49.9323838 C139.241706,54.8904624 139.241706,62.9286843 134.274882,67.8867629 C122.02479,80.1130277 100.220855,101.873636 87.9707627,114.099901 C85.585513,116.481427 82.34983,117.818231 78.9765364,117.818231 C75.6023254,117.818231 72.3675598,116.481427 69.9813927,114.099901 C68.1777769,112.299793 66.2815033,110.407208 64.4769702,108.606185 C62.0917204,106.225575 60.7513936,102.996186 60.7513936,99.6294534 C60.7513936,96.2618055 62.0917204,93.0333318 64.4769702,90.651806 L74.4803406,80.667893 L56.262537,80.667893 C49.2379765,80.667893 43.5427341,86.3520577 43.5427341,93.3629548 C43.5427341,120.378303 43.5427341,183.28959 43.5427341,210.304023 C43.5427341,217.315835 37.848409,222.999084 30.8229311,223 C25.124019,223 18.418715,223 12.719803,223 C9.34650938,223 6.11082636,221.66228 3.72557662,219.280754 C1.34032687,216.900144 0,213.670755 0,210.304023 C0,182.405102 0,114.902899 0,72.9153442 C0,63.4450936 3.76869459,54.3639813 10.4785856,47.6671416 C17.1875592,40.9712175 26.287287,37.2098534 35.7750765,37.2098534 L74.5390545,37.2098534 Z" id="Path"></path>
            </g>
        </g>
    </g>
</svg>