<?xml version="1.0" encoding="UTF-8"?>
<svg width="301px" height="301px" viewBox="0 0 301 301" version="1.1" xmlns="http://www.w3.org/2000/svg" xmlns:xlink="http://www.w3.org/1999/xlink">
    <!-- Generator: Sketch 54.1 (76490) - https://sketchapp.com -->
    <title>eodiro_logo_r</title>
    <desc>Created with Sketch.</desc>
    <defs>
        <path d="M66.059,33.499 L57.209,24.649 C55.111,22.551 53.933,19.705 53.933,16.738 C53.933,13.771 55.111,10.926 57.209,8.828 C58.796,7.241 60.464,5.573 62.051,3.986 C64.149,1.888 66.994,0.71 69.962,0.71 C72.929,0.71 75.774,1.888 77.872,3.986 C88.646,14.76 107.822,33.936 118.596,44.71 C122.965,49.079 122.965,56.162 118.596,60.531 C107.822,71.305 88.646,90.481 77.872,101.255 C75.774,103.353 72.929,104.532 69.962,104.532 C66.994,104.532 64.149,103.353 62.051,101.255 C60.464,99.668 58.796,98.001 57.209,96.414 C55.111,94.316 53.933,91.47 53.933,88.503 C53.933,85.536 55.111,82.69 57.209,80.592 L66.007,71.794 L49.985,71.794 C43.807,71.794 38.798,76.803 38.798,82.982 C38.798,106.787 38.798,162.225 38.798,186.031 C38.798,192.209 33.789,197.218 27.611,197.218 C22.599,197.218 16.702,197.218 11.69,197.218 C8.722,197.218 5.877,196.039 3.779,193.941 C1.681,191.843 0.502,188.998 0.502,186.031 C0.502,161.446 0.502,101.962 0.502,64.963 C0.502,56.618 3.817,48.615 9.718,42.714 C15.619,36.813 23.622,33.499 31.966,33.499 L66.059,33.499 Z" id="path-1"></path>
        <linearGradient x1="52.8981037%" y1="0%" x2="38.2508483%" y2="101.650823%" id="linearGradient-3">
            <stop stop-color="#FFDF00" offset="0%"></stop>
            <stop stop-color="#FF006D" offset="100%"></stop>
        </linearGradient>
    </defs>
    <g id="Page-1" stroke="none" stroke-width="1" fill="none" fill-rule="evenodd">
        <g id="eodiro_logo_r">
            <path d="M102.555408,-4.14336123e-15 L198.444592,4.14336123e-15 C234.105342,-2.4074122e-15 247.036791,3.71302445 260.073828,10.6853082 C273.110865,17.6575919 283.342408,27.8891348 290.314692,40.9261719 C297.286976,53.9632089 301,66.8946584 301,102.555408 L301,198.444592 C301,234.105342 297.286976,247.036791 290.314692,260.073828 C283.342408,273.110865 273.110865,283.342408 260.073828,290.314692 C247.036791,297.286976 234.105342,301 198.444592,301 L102.555408,301 C66.8946584,301 53.9632089,297.286976 40.9261719,290.314692 C27.8891348,283.342408 17.6575919,273.110865 10.6853082,260.073828 C3.71302445,247.036791 1.60494146e-15,234.105342 -2.76224082e-15,198.444592 L2.76224082e-15,102.555408 C-1.60494146e-15,66.8946584 3.71302445,53.9632089 10.6853082,40.9261719 C17.6575919,27.8891348 27.8891348,17.6575919 40.9261719,10.6853082 C53.9632089,3.71302445 66.8946584,2.4074122e-15 102.555408,-4.14336123e-15 Z" id="Rectangle" fill="#FFFFFF"></path>
            <g id="eodiro_logo" transform="translate(102.000000, 52.000000)">
                <mask id="mask-2" fill="white">
                    <use xlink:href="#path-1"></use>
                </mask>
                <g id="Clip-4"></g>
                <path d="M66.059,33.499 L57.209,24.649 C55.111,22.551 53.933,19.705 53.933,16.738 C53.933,13.771 55.111,10.926 57.209,8.828 C58.796,7.241 60.464,5.573 62.051,3.986 C64.149,1.888 66.994,0.71 69.962,0.71 C72.929,0.71 75.774,1.888 77.872,3.986 C88.646,14.76 107.822,33.936 118.596,44.71 C122.965,49.079 122.965,56.162 118.596,60.531 C107.822,71.305 88.646,90.481 77.872,101.255 C75.774,103.353 72.929,104.532 69.962,104.532 C66.994,104.532 64.149,103.353 62.051,101.255 C60.464,99.668 58.796,98.001 57.209,96.414 C55.111,94.316 53.933,91.47 53.933,88.503 C53.933,85.536 55.111,82.69 57.209,80.592 L66.007,71.794 L49.985,71.794 C43.807,71.794 38.798,76.803 38.798,82.982 C38.798,106.787 38.798,162.225 38.798,186.031 C38.798,192.209 33.789,197.218 27.611,197.218 C22.599,197.218 16.702,197.218 11.69,197.218 C8.722,197.218 5.877,196.039 3.779,193.941 C1.681,191.843 0.502,188.998 0.502,186.031 C0.502,161.446 0.502,101.962 0.502,64.963 C0.502,56.618 3.817,48.615 9.718,42.714 C15.619,36.813 23.622,33.499 31.966,33.499 L66.059,33.499 Z" id="Fill-3" fill="url(#linearGradient-3)" mask="url(#mask-2)"></path>
            </g>
        </g>
    </g>
</svg>