<?xml version="1.0" encoding="UTF-8" standalone="no"?><!DOCTYPE svg PUBLIC "-//W3C//DTD SVG 1.1//EN" "http://www.w3.org/Graphics/SVG/1.1/DTD/svg11.dtd"><svg width="100%" height="100%" viewBox="0 0 56 52" version="1.1" xmlns="http://www.w3.org/2000/svg" xmlns:xlink="http://www.w3.org/1999/xlink" xml:space="preserve" xmlns:serif="http://www.serif.com/" style="fill-rule:evenodd;clip-rule:evenodd;stroke-linejoin:round;stroke-miterlimit:1.41421;"><g><path id="Curve" d="M33.545,37.118l0,8.658c0,1.149 -0.655,2.196 -1.688,2.698c-1.033,0.502 -2.262,0.371 -3.165,-0.339c-6.469,-5.082 -17.796,-13.982 -23.803,-18.701c-0.965,-0.758 -1.529,-1.918 -1.529,-3.145c0,-1.228 0.564,-2.387 1.529,-3.146c6.007,-4.719 17.334,-13.619 23.803,-18.701c0.903,-0.71 2.132,-0.841 3.165,-0.339c1.033,0.502 1.688,1.549 1.688,2.698c0,4.071 0,8.658 0,8.658l18.341,0c1.06,0 2.078,0.421 2.828,1.171c0.75,0.75 1.172,1.768 1.172,2.829c0,3.891 0,9.769 0,13.659c0,1.061 -0.422,2.079 -1.172,2.829c-0.75,0.75 -1.768,1.171 -2.828,1.171c-6.428,0 -18.341,0 -18.341,0Z" style="fill:#575757;"/></g></svg>