<?xml version="1.0" encoding="UTF-8" standalone="no"?><!DOCTYPE svg PUBLIC "-//W3C//DTD SVG 1.1//EN" "http://www.w3.org/Graphics/SVG/1.1/DTD/svg11.dtd"><svg width="100%" height="100%" viewBox="0 0 800 210" version="1.1" xmlns="http://www.w3.org/2000/svg" xmlns:xlink="http://www.w3.org/1999/xlink" xml:space="preserve" xmlns:serif="http://www.serif.com/" style="fill-rule:evenodd;clip-rule:evenodd;stroke-linejoin:round;stroke-miterlimit:1.41421;"><g><path d="M69.475,83.715c19.563,0 32.789,14.465 33.615,35.131l-68.195,0c1.378,-20.252 15.292,-35.131 34.58,-35.131Zm33.753,78.803c-3.72,12.124 -15.843,20.115 -31.825,20.115c-22.456,0 -36.784,-15.706 -36.784,-39.127l0,-2.066l102.087,0l0,-11.159c0.275,-44.086 -26.176,-73.431 -67.369,-73.156c-42.019,0 -68.884,30.447 -68.884,76.6c0,46.428 26.451,75.359 70.262,75.359c34.58,0 60.204,-19.15 64.613,-46.566l-32.1,0Z" style="fill:#fff;fill-rule:nonzero;"/><path d="M223.362,209.084c42.708,0 70.675,-28.518 70.675,-75.91c0,-47.255 -28.104,-76.049 -70.675,-76.049c-42.57,0 -70.675,29.07 -70.675,76.049c0,47.392 27.967,75.91 70.675,75.91Zm0,-27.14c-21.767,0 -35.82,-17.635 -35.82,-48.77c0,-30.998 14.191,-48.77 35.82,-48.77c21.768,0 35.82,17.772 35.82,48.77c0,31.135 -14.052,48.77 -35.82,48.77Z" style="fill:#fff;fill-rule:nonzero;"/><path d="M370.637,208.533c10.608,0 19.976,-2.48 28.105,-7.577c8.128,-4.96 14.052,-11.573 18.047,-19.701l0.551,0l0,24.936l33.616,0l0,-198.8l-34.305,0l0,77.288l-0.826,0c-3.858,-8.128 -9.782,-14.603 -17.635,-19.563c-7.852,-4.96 -17.083,-7.439 -27.553,-7.439c-36.784,0 -60.618,29.344 -60.618,75.359c0,46.428 23.834,75.497 60.618,75.497Zm10.332,-122.614c21.63,0 35.82,18.599 35.82,47.255c0,28.931 -14.19,47.254 -35.82,47.254c-22.043,0 -35.819,-18.185 -35.819,-47.254c0,-28.932 13.776,-47.255 35.819,-47.255Z" style="fill:#fff;fill-rule:nonzero;"/><path d="M480.576,206.191l34.304,0l0,-146.035l-34.304,0l0,146.035Zm16.946,-168.078c10.745,0 18.874,-8.541 18.874,-18.598c0,-10.333 -8.129,-18.599 -18.874,-18.599c-10.195,0 -18.737,8.266 -18.737,18.599c0,10.057 8.542,18.598 18.737,18.598Z" style="fill:#fff;fill-rule:nonzero;"/><path d="M728.872,209.084c42.708,0 70.675,-28.518 70.675,-75.91c0,-47.255 -28.104,-76.049 -70.675,-76.049c-42.57,0 -70.675,29.07 -70.675,76.049c0,47.392 27.967,75.91 70.675,75.91Zm0,-27.14c-21.767,0 -35.82,-17.635 -35.82,-48.77c0,-30.998 14.19,-48.77 35.82,-48.77c21.767,0 35.82,17.772 35.82,48.77c0,31.135 -14.053,48.77 -35.82,48.77Z" style="fill:#fff;fill-rule:nonzero;"/><g><path id="baked" d="M602.149,60.156l-7.893,-7.893c-1.872,-1.872 -2.923,-4.41 -2.923,-7.056c0,-2.647 1.051,-5.185 2.923,-7.056c1.415,-1.416 2.903,-2.904 4.318,-4.319c1.872,-1.871 4.41,-2.923 7.056,-2.923c2.647,0 5.185,1.052 7.056,2.923c9.61,9.61 26.715,26.715 36.325,36.325c3.897,3.897 3.897,10.215 0,14.112c-9.61,9.61 -26.715,26.715 -36.325,36.325c-1.871,1.871 -4.409,2.923 -7.056,2.923c-2.646,0 -5.184,-1.052 -7.056,-2.923c-1.415,-1.416 -2.903,-2.903 -4.318,-4.319c-1.872,-1.871 -2.923,-4.409 -2.923,-7.056c0,-2.646 1.051,-5.184 2.923,-7.056l7.847,-7.847l-14.291,0c-5.511,0 -9.979,4.467 -9.979,9.978c0,21.234 0,70.684 0,91.918c0,5.511 -4.467,9.979 -9.979,9.979c-4.47,0 -9.731,0 -14.201,0c-2.647,0 -5.185,-1.051 -7.056,-2.923c-1.872,-1.871 -2.923,-4.409 -2.923,-7.056c0,-21.929 0,-74.987 0,-107.99c0,-7.444 2.957,-14.582 8.22,-19.846c5.263,-5.263 12.402,-8.22 19.845,-8.22l30.41,0Z" style="fill:url(#_Linear1);"/><path d="M602.149,60.156l-7.893,-7.893c-1.872,-1.872 -2.923,-4.41 -2.923,-7.056c0,-2.647 1.051,-5.185 2.923,-7.056c1.415,-1.416 2.903,-2.904 4.318,-4.319c1.872,-1.871 4.41,-2.923 7.056,-2.923c2.647,0 5.185,1.052 7.056,2.923c9.61,9.61 26.715,26.715 36.325,36.325c3.897,3.897 3.897,10.215 0,14.112c-9.61,9.61 -26.715,26.715 -36.325,36.325c-1.871,1.871 -4.409,2.923 -7.056,2.923c-2.646,0 -5.184,-1.052 -7.056,-2.923c-1.415,-1.416 -2.903,-2.903 -4.318,-4.319c-1.872,-1.871 -2.923,-4.409 -2.923,-7.056c0,-2.646 1.051,-5.184 2.923,-7.056l7.847,-7.847l-14.291,0c-5.511,0 -9.979,4.467 -9.979,9.978c0,21.234 0,70.684 0,91.918c0,5.511 -4.467,9.979 -9.979,9.979c-4.47,0 -9.731,0 -14.201,0c-2.647,0 -5.185,-1.051 -7.056,-2.923c-1.872,-1.871 -2.923,-4.409 -2.923,-7.056c0,-21.929 0,-74.987 0,-107.99c0,-7.444 2.957,-14.582 8.22,-19.846c5.263,-5.263 12.402,-8.22 19.845,-8.22l30.41,0Z" style="fill:url(#_Linear2);"/></g></g><defs><linearGradient id="_Linear1" x1="0" y1="0" x2="1" y2="0" gradientUnits="userSpaceOnUse" gradientTransform="matrix(-41.5679,178.175,-178.175,-41.5679,606.029,30.9092)"><stop offset="0" style="stop-color:#ffdf00;stop-opacity:1"/><stop offset="1" style="stop-color:#ff006e;stop-opacity:1"/></linearGradient><linearGradient id="_Linear2" x1="0" y1="0" x2="1" y2="0" gradientUnits="userSpaceOnUse" gradientTransform="matrix(-41.5679,178.175,-178.175,-41.5679,606.029,30.9092)"><stop offset="0" style="stop-color:#ffdf00;stop-opacity:1"/><stop offset="1" style="stop-color:#ff006e;stop-opacity:1"/></linearGradient></defs></svg>