<?xml version="1.0" encoding="UTF-8" standalone="no"?><!DOCTYPE svg PUBLIC "-//W3C//DTD SVG 1.1//EN" "http://www.w3.org/Graphics/SVG/1.1/DTD/svg11.dtd"><svg width="100%" height="100%" viewBox="0 0 800 209" version="1.1" xmlns="http://www.w3.org/2000/svg" xmlns:xlink="http://www.w3.org/1999/xlink" xml:space="preserve" xmlns:serif="http://www.serif.com/" style="fill-rule:evenodd;clip-rule:evenodd;stroke-linejoin:round;stroke-miterlimit:1.41421;"><g><path d="M69.475,82.965c19.563,0 32.789,14.466 33.615,35.131l-68.195,0c1.378,-20.252 15.292,-35.131 34.58,-35.131Zm33.753,78.804c-3.72,12.123 -15.843,20.114 -31.825,20.114c-22.456,0 -36.784,-15.706 -36.784,-39.126l0,-2.067l102.087,0l0,-11.159c0.275,-44.086 -26.176,-73.431 -67.369,-73.155c-42.019,0 -68.884,30.447 -68.884,76.599c0,46.428 26.451,75.36 70.262,75.36c34.58,0 60.204,-19.15 64.613,-46.566l-32.1,0Z" style="fill:#333;fill-rule:nonzero;"/><path d="M223.362,208.335c42.708,0 70.675,-28.519 70.675,-75.911c0,-47.254 -28.104,-76.048 -70.675,-76.048c-42.57,0 -70.675,29.069 -70.675,76.048c0,47.392 27.967,75.911 70.675,75.911Zm0,-27.141c-21.767,0 -35.82,-17.634 -35.82,-48.77c0,-30.998 14.191,-48.77 35.82,-48.77c21.768,0 35.82,17.772 35.82,48.77c0,31.136 -14.052,48.77 -35.82,48.77Z" style="fill:#333;fill-rule:nonzero;"/><path d="M370.637,207.784c10.608,0 19.976,-2.48 28.105,-7.578c8.128,-4.959 14.052,-11.572 18.047,-19.701l0.551,0l0,24.936l33.616,0l0,-198.8l-34.305,0l0,77.289l-0.826,0c-3.858,-8.129 -9.782,-14.604 -17.635,-19.564c-7.852,-4.959 -17.083,-7.439 -27.553,-7.439c-36.784,0 -60.618,29.345 -60.618,75.359c0,46.428 23.834,75.498 60.618,75.498Zm10.332,-122.614c21.63,0 35.82,18.598 35.82,47.254c0,28.932 -14.19,47.255 -35.82,47.255c-22.043,0 -35.819,-18.186 -35.819,-47.255c0,-28.931 13.776,-47.254 35.819,-47.254Z" style="fill:#333;fill-rule:nonzero;"/><path d="M480.576,205.441l34.304,0l0,-146.034l-34.304,0l0,146.034Zm16.946,-168.077c10.745,0 18.874,-8.542 18.874,-18.599c0,-10.333 -8.129,-18.599 -18.874,-18.599c-10.195,0 -18.737,8.266 -18.737,18.599c0,10.057 8.542,18.599 18.737,18.599Z" style="fill:#333;fill-rule:nonzero;"/><path d="M728.872,208.335c42.708,0 70.675,-28.519 70.675,-75.911c0,-47.254 -28.104,-76.048 -70.675,-76.048c-42.57,0 -70.675,29.069 -70.675,76.048c0,47.392 27.967,75.911 70.675,75.911Zm0,-27.141c-21.767,0 -35.82,-17.634 -35.82,-48.77c0,-30.998 14.19,-48.77 35.82,-48.77c21.767,0 35.82,17.772 35.82,48.77c0,31.136 -14.053,48.77 -35.82,48.77Z" style="fill:#333;fill-rule:nonzero;"/><g><path id="baked" d="M602.149,59.407l-7.893,-7.894c-1.872,-1.871 -2.923,-4.409 -2.923,-7.056c0,-2.646 1.051,-5.185 2.923,-7.056c1.415,-1.416 2.903,-2.903 4.318,-4.319c1.872,-1.871 4.41,-2.922 7.056,-2.922c2.647,0 5.185,1.051 7.056,2.922c9.61,9.61 26.715,26.715 36.325,36.325c3.897,3.897 3.897,10.216 0,14.112c-9.61,9.611 -26.715,26.715 -36.325,36.325c-1.871,1.872 -4.409,2.923 -7.056,2.923c-2.646,0 -5.184,-1.051 -7.056,-2.923c-1.415,-1.415 -2.903,-2.903 -4.318,-4.318c-1.872,-1.872 -2.923,-4.41 -2.923,-7.056c0,-2.647 1.051,-5.185 2.923,-7.056l7.847,-7.848l-14.291,0c-5.511,0 -9.979,4.468 -9.979,9.979c0,21.234 0,70.684 0,91.918c0,5.511 -4.467,9.978 -9.979,9.978c-4.47,0 -9.731,0 -14.201,0c-2.647,0 -5.185,-1.051 -7.056,-2.922c-1.872,-1.872 -2.923,-4.41 -2.923,-7.056c0,-21.929 0,-74.988 0,-107.991c0,-7.443 2.957,-14.582 8.22,-19.845c5.263,-5.263 12.402,-8.22 19.845,-8.22l30.41,0Z" style="fill:url(#_Linear1);"/><path d="M602.149,59.407l-7.893,-7.894c-1.872,-1.871 -2.923,-4.409 -2.923,-7.056c0,-2.646 1.051,-5.185 2.923,-7.056c1.415,-1.416 2.903,-2.903 4.318,-4.319c1.872,-1.871 4.41,-2.922 7.056,-2.922c2.647,0 5.185,1.051 7.056,2.922c9.61,9.61 26.715,26.715 36.325,36.325c3.897,3.897 3.897,10.216 0,14.112c-9.61,9.611 -26.715,26.715 -36.325,36.325c-1.871,1.872 -4.409,2.923 -7.056,2.923c-2.646,0 -5.184,-1.051 -7.056,-2.923c-1.415,-1.415 -2.903,-2.903 -4.318,-4.318c-1.872,-1.872 -2.923,-4.41 -2.923,-7.056c0,-2.647 1.051,-5.185 2.923,-7.056l7.847,-7.848l-14.291,0c-5.511,0 -9.979,4.468 -9.979,9.979c0,21.234 0,70.684 0,91.918c0,5.511 -4.467,9.978 -9.979,9.978c-4.47,0 -9.731,0 -14.201,0c-2.647,0 -5.185,-1.051 -7.056,-2.922c-1.872,-1.872 -2.923,-4.41 -2.923,-7.056c0,-21.929 0,-74.988 0,-107.991c0,-7.443 2.957,-14.582 8.22,-19.845c5.263,-5.263 12.402,-8.22 19.845,-8.22l30.41,0Z" style="fill:url(#_Linear2);"/></g></g><defs><linearGradient id="_Linear1" x1="0" y1="0" x2="1" y2="0" gradientUnits="userSpaceOnUse" gradientTransform="matrix(-41.5679,178.175,-178.175,-41.5679,606.029,30.1597)"><stop offset="0" style="stop-color:#ffdf00;stop-opacity:1"/><stop offset="1" style="stop-color:#ff006e;stop-opacity:1"/></linearGradient><linearGradient id="_Linear2" x1="0" y1="0" x2="1" y2="0" gradientUnits="userSpaceOnUse" gradientTransform="matrix(-41.5679,178.175,-178.175,-41.5679,606.029,30.1597)"><stop offset="0" style="stop-color:#ffdf00;stop-opacity:1"/><stop offset="1" style="stop-color:#ff006e;stop-opacity:1"/></linearGradient></defs></svg>