<?xml version="1.0" encoding="UTF-8" standalone="no"?><!DOCTYPE svg PUBLIC "-//W3C//DTD SVG 1.1//EN" "http://www.w3.org/Graphics/SVG/1.1/DTD/svg11.dtd"><svg width="100%" height="100%" viewBox="0 0 140 209" version="1.1" xmlns="http://www.w3.org/2000/svg" xmlns:xlink="http://www.w3.org/1999/xlink" xml:space="preserve" xmlns:serif="http://www.serif.com/" style="fill-rule:evenodd;clip-rule:evenodd;stroke-linejoin:round;stroke-miterlimit:1.41421;"><rect id="logo" x="-112" y="-407.75" width="1024" height="1024" style="fill:none;"/><g><path d="M69.475,82.965c19.563,0 32.789,14.466 33.615,35.131l-68.195,0c1.378,-20.252 15.292,-35.131 34.58,-35.131Zm33.753,78.804c-3.72,12.123 -15.843,20.114 -31.825,20.114c-22.456,0 -36.784,-15.706 -36.784,-39.126l0,-2.067l102.087,0l0,-11.159c0.275,-44.086 -26.176,-73.431 -67.369,-73.155c-42.019,0 -68.884,30.447 -68.884,76.599c0,46.428 26.451,75.36 70.262,75.36c34.58,0 60.204,-19.15 64.613,-46.566l-32.1,0Z" style="fill:#333;fill-rule:nonzero;"/></g></svg>