<?xml version="1.0" encoding="UTF-8" standalone="no"?><!DOCTYPE svg PUBLIC "-//W3C//DTD SVG 1.1//EN" "http://www.w3.org/Graphics/SVG/1.1/DTD/svg11.dtd"><svg width="100%" height="100%" viewBox="0 0 512 512" version="1.1" xmlns="http://www.w3.org/2000/svg" xmlns:xlink="http://www.w3.org/1999/xlink" xml:space="preserve" xmlns:serif="http://www.serif.com/" style="fill-rule:evenodd;clip-rule:evenodd;stroke-linejoin:round;stroke-miterlimit:1.41421;"><rect id="star" x="0" y="0" width="512" height="512" style="fill:none;"/><g id="star1" serif:id="star"><path d="M232.286,67.802c3.125,-10.489 12.769,-17.679 23.714,-17.679c10.945,0 20.589,7.19 23.714,17.679l36.908,123.882l129.224,-3.18c10.941,-0.27 20.76,6.681 24.142,17.09c3.382,10.409 -0.476,21.803 -9.486,28.016l-106.414,73.384l42.957,121.916c3.637,10.323 0.061,21.808 -8.793,28.242c-8.855,6.433 -20.883,6.285 -29.577,-0.364l-102.675,-78.529l-102.675,78.529c-8.694,6.649 -20.722,6.797 -29.577,0.364c-8.854,-6.434 -12.43,-17.919 -8.793,-28.242l42.957,-121.916l-106.414,-73.384c-9.01,-6.213 -12.868,-17.607 -9.486,-28.016c3.382,-10.409 13.201,-17.36 24.142,-17.09l129.224,3.18l36.908,-123.882Z" style="fill:#000000;"/></g></svg>