<?xml version="1.0" standalone="no"?>
<!DOCTYPE svg PUBLIC "-//W3C//DTD SVG 20010904//EN"
 "http://www.w3.org/TR/2001/REC-SVG-20010904/DTD/svg10.dtd">
<svg version="1.0" xmlns="http://www.w3.org/2000/svg"
 width="512.000000pt" height="512.000000pt" viewBox="0 0 512.000000 512.000000"
 preserveAspectRatio="xMidYMid meet">
<metadata>
Created by potrace 1.11, written by Peter Selinger 2001-2013
</metadata>
<g transform="translate(0.000000,512.000000) scale(0.100000,-0.100000)"
fill="#000000" stroke="none">
<path d="M2815 4947 c-50 -17 -106 -61 -185 -143 -91 -95 -113 -137 -118 -227
-6 -100 20 -145 168 -293 66 -65 120 -121 120 -124 0 -3 -206 -5 -458 -5 -251
0 -477 -3 -502 -7 -248 -38 -486 -232 -582 -473 -22 -55 -21 -53 -41 -145 -20
-93 -18 -3122 2 -3189 8 -29 30 -61 65 -97 81 -81 111 -86 414 -82 230 3 250
5 287 25 56 30 104 80 129 133 21 45 21 51 26 1375 4 1190 7 1334 21 1365 35
76 114 141 189 156 50 9 440 11 440 1 0 -4 -52 -60 -116 -123 -134 -134 -164
-184 -164 -279 0 -90 31 -146 141 -255 94 -94 141 -123 216 -133 56 -8 145 15
190 49 21 15 268 258 548 539 393 392 517 522 535 560 33 67 34 169 1 235 -33
65 -1045 1078 -1115 1116 -56 31 -155 41 -211 21z"/>
</g>
</svg>
