<svg width="128" height="129" viewBox="0 0 128 129" fill="none" xmlns="http://www.w3.org/2000/svg">
<g clip-path="url(#clip0)">
<path d="M0 49.611C0 32.4062 0 23.8038 3.34828 17.2324C6.29351 11.4521 10.9931 6.75249 16.7734 3.80726C23.3448 0.458984 31.9472 0.458984 49.152 0.458984H78.848C96.0528 0.458984 104.655 0.458984 111.227 3.80726C117.007 6.75249 121.706 11.4521 124.652 17.2324C128 23.8038 128 32.4062 128 49.611V79.307C128 96.5118 128 105.114 124.652 111.686C121.706 117.466 117.007 122.165 111.227 125.111C104.655 128.459 96.0528 128.459 78.848 128.459H49.152C31.9472 128.459 23.3448 128.459 16.7734 125.111C10.9931 122.165 6.29351 117.466 3.34828 111.686C0 105.114 0 96.5118 0 79.307V49.611Z" fill="url(#paint0_linear)"/>
<path fill-rule="evenodd" clip-rule="evenodd" d="M59.2301 80.9367C70.9648 80.9367 80.4777 71.4238 80.4777 59.6891C80.4777 47.9544 70.9648 38.4416 59.2301 38.4416C47.4954 38.4416 37.9826 47.9544 37.9826 59.6891C37.9826 71.4238 47.4954 80.9367 59.2301 80.9367ZM59.2301 88.7419C75.2755 88.7419 88.2829 75.7345 88.2829 59.6891C88.2829 43.6437 75.2755 30.6364 59.2301 30.6364C43.1847 30.6364 30.1774 43.6437 30.1774 59.6891C30.1774 75.7345 43.1847 88.7419 59.2301 88.7419Z" fill="black"/>
<path fill-rule="evenodd" clip-rule="evenodd" d="M74.2544 75.3266C75.7784 73.8026 78.2494 73.8026 79.7735 75.3266L94.4912 90.0443C96.0152 91.5683 96.0152 94.0393 94.4912 95.5634C92.9671 97.0875 90.4961 97.0875 88.972 95.5634L74.2544 80.8457C72.7303 79.3217 72.7303 76.8507 74.2544 75.3266Z" fill="black"/>
</g>
<defs>
<linearGradient id="paint0_linear" x1="64" y1="0.458984" x2="64" y2="128.459" gradientUnits="userSpaceOnUse">
<stop stop-color="#56F23D"/>
<stop offset="1" stop-color="#00D749"/>
</linearGradient>
<clipPath id="clip0">
<rect width="128" height="128" fill="white" transform="translate(0 0.458984)"/>
</clipPath>
</defs>
</svg>
