<svg width="128" height="129" viewBox="0 0 128 129" fill="none" xmlns="http://www.w3.org/2000/svg">
<g clip-path="url(#clip0)">
<path d="M0 50.0446C0 32.8398 0 24.2374 3.34828 17.666C6.29351 11.8857 10.9931 7.18615 16.7734 4.24092C23.3448 0.892639 31.9472 0.892639 49.152 0.892639H78.848C96.0528 0.892639 104.655 0.892639 111.227 4.24092C117.007 7.18615 121.706 11.8857 124.652 17.666C128 24.2374 128 32.8398 128 50.0446V79.7406C128 96.9455 128 105.548 124.652 112.119C121.706 117.9 117.007 122.599 111.227 125.544C104.655 128.893 96.0528 128.893 78.848 128.893H49.152C31.9472 128.893 23.3448 128.893 16.7734 125.544C10.9931 122.599 6.29351 117.9 3.34828 112.119C0 105.548 0 96.9455 0 79.7406V50.0446Z" fill="url(#paint0_linear)"/>
<path fill-rule="evenodd" clip-rule="evenodd" d="M94.8577 63.1902C102.909 55.1392 102.909 42.086 94.8577 34.035C86.8067 25.984 73.7534 25.984 65.7024 34.035C57.6514 42.086 57.6514 55.1392 65.7024 63.1902C73.7534 71.2413 86.8067 71.2413 94.8577 63.1902ZM86.8634 55.1962C90.4994 51.5602 90.4994 45.6651 86.8634 42.0291C83.2275 38.3931 77.3324 38.3931 73.6964 42.0291C70.0604 45.6651 70.0604 51.5602 73.6964 55.1962C77.3324 58.8321 83.2275 58.8321 86.8634 55.1962Z" fill="black"/>
<path d="M33.1423 95.7504C31.2687 93.8768 31.2687 90.8392 33.1423 88.9657L68.9385 53.1695L75.7231 59.9541L39.9269 95.7504C38.0534 97.6239 35.0158 97.6239 33.1423 95.7504Z" fill="black"/>
<rect x="39.7294" y="91.1184" width="16.1508" height="12.6672" rx="3.26885" transform="rotate(-45 39.7294 91.1184)" fill="black"/>
</g>
<defs>
<linearGradient id="paint0_linear" x1="64" y1="0.892639" x2="64" y2="128.893" gradientUnits="userSpaceOnUse">
<stop stop-color="#987EFF"/>
<stop offset="1" stop-color="#5F14BE"/>
</linearGradient>
<clipPath id="clip0">
<rect width="128" height="128" fill="white" transform="translate(0 0.892639)"/>
</clipPath>
</defs>
</svg>
