<svg width="128" height="129" viewBox="0 0 128 129" fill="none" xmlns="http://www.w3.org/2000/svg">
<g clip-path="url(#clip0)">
<path d="M3.05176e-05 49.791C3.05176e-05 32.5862 3.05176e-05 23.9838 3.34831 17.4124C6.29354 11.6321 10.9931 6.93255 16.7734 3.98732C23.3448 0.639038 31.9472 0.639038 49.152 0.639038H78.848C96.0528 0.639038 104.655 0.639038 111.227 3.98732C117.007 6.93255 121.707 11.6321 124.652 17.4124C128 23.9838 128 32.5862 128 49.791V79.487C128 96.6919 128 105.294 124.652 111.866C121.707 117.646 117.007 122.346 111.227 125.291C104.655 128.639 96.0528 128.639 78.848 128.639H49.152C31.9472 128.639 23.3448 128.639 16.7734 125.291C10.9931 122.346 6.29354 117.646 3.34831 111.866C3.05176e-05 105.294 3.05176e-05 96.6919 3.05176e-05 79.487V49.791Z" fill="url(#paint0_linear)"/>
<path fill-rule="evenodd" clip-rule="evenodd" d="M59.2301 81.1167C70.9648 81.1167 80.4777 71.6039 80.4777 59.8692C80.4777 48.1345 70.9648 38.6216 59.2301 38.6216C47.4954 38.6216 37.9826 48.1345 37.9826 59.8692C37.9826 71.6039 47.4954 81.1167 59.2301 81.1167ZM59.2301 88.9219C75.2755 88.9219 88.2829 75.9146 88.2829 59.8692C88.2829 43.8238 75.2755 30.8164 59.2301 30.8164C43.1847 30.8164 30.1774 43.8238 30.1774 59.8692C30.1774 75.9146 43.1847 88.9219 59.2301 88.9219Z" fill="white"/>
<path fill-rule="evenodd" clip-rule="evenodd" d="M74.2544 75.5067C75.7785 73.9826 78.2495 73.9826 79.7735 75.5067L94.4912 90.2243C96.0153 91.7484 96.0153 94.2194 94.4912 95.7435C92.9671 97.2675 90.4961 97.2675 88.9721 95.7435L74.2544 81.0258C72.7303 79.5017 72.7303 77.0307 74.2544 75.5067Z" fill="white"/>
</g>
<defs>
<linearGradient id="paint0_linear" x1="64" y1="0.639038" x2="64" y2="128.639" gradientUnits="userSpaceOnUse">
<stop stop-color="#56F23D"/>
<stop offset="1" stop-color="#00D749"/>
</linearGradient>
<clipPath id="clip0">
<rect width="128" height="128" fill="white" transform="translate(3.05176e-05 0.639038)"/>
</clipPath>
</defs>
</svg>
