<svg width="128" height="129" viewBox="0 0 128 129" fill="none" xmlns="http://www.w3.org/2000/svg">
<g clip-path="url(#clip0)">
<path d="M0 49.2247C0 32.0199 0 23.4175 3.34828 16.8461C6.29351 11.0658 10.9931 6.3662 16.7734 3.42097C23.3448 0.0726929 31.9472 0.0726929 49.152 0.0726929H78.848C96.0528 0.0726929 104.655 0.0726929 111.227 3.42097C117.007 6.3662 121.706 11.0658 124.652 16.8461C128 23.4175 128 32.0199 128 49.2247V78.9207C128 96.1255 128 104.728 124.652 111.299C121.706 117.08 117.007 121.779 111.227 124.724C104.655 128.073 96.0528 128.073 78.848 128.073H49.152C31.9472 128.073 23.3448 128.073 16.7734 124.724C10.9931 121.779 6.29351 117.08 3.34828 111.299C0 104.728 0 96.1255 0 78.9207V49.2247Z" fill="url(#paint0_linear)"/>
<path fill-rule="evenodd" clip-rule="evenodd" d="M94.8577 62.3703C102.909 54.3193 102.909 41.266 94.8577 33.215C86.8067 25.164 73.7534 25.164 65.7024 33.215C57.6514 41.266 57.6514 54.3193 65.7024 62.3703C73.7534 70.4213 86.8067 70.4213 94.8577 62.3703ZM86.8634 54.3762C90.4994 50.7402 90.4994 44.8451 86.8634 41.2092C83.2275 37.5732 77.3324 37.5732 73.6964 41.2092C70.0604 44.8451 70.0604 50.7402 73.6964 54.3762C77.3324 58.0122 83.2275 58.0122 86.8634 54.3762Z" fill="white"/>
<path d="M33.1423 94.9304C31.2687 93.0569 31.2687 90.0193 33.1423 88.1458L68.9385 52.3495L75.7231 59.1342L39.9269 94.9304C38.0534 96.8039 35.0158 96.8039 33.1423 94.9304Z" fill="white"/>
<rect x="39.7294" y="90.2985" width="16.1508" height="12.6672" rx="3.26885" transform="rotate(-45 39.7294 90.2985)" fill="white"/>
</g>
<defs>
<linearGradient id="paint0_linear" x1="64" y1="0.0726929" x2="64" y2="128.073" gradientUnits="userSpaceOnUse">
<stop stop-color="#987EFF"/>
<stop offset="1" stop-color="#5F14BE"/>
</linearGradient>
<clipPath id="clip0">
<rect width="128" height="128" fill="white" transform="translate(0 0.0726929)"/>
</clipPath>
</defs>
</svg>
