<svg width="128" height="128" viewBox="0 0 128 128" fill="none" xmlns="http://www.w3.org/2000/svg">
<path d="M0 49.152C0 31.9472 0 23.3448 3.34828 16.7734C6.29351 10.9931 10.9931 6.29351 16.7734 3.34828C23.3448 0 31.9472 0 49.152 0H78.848C96.0528 0 104.655 0 111.227 3.34828C117.007 6.29351 121.706 10.9931 124.652 16.7734C128 23.3448 128 31.9472 128 49.152V78.848C128 96.0528 128 104.655 124.652 111.227C121.706 117.007 117.007 121.706 111.227 124.652C104.655 128 96.0528 128 78.848 128H49.152C31.9472 128 23.3448 128 16.7734 124.652C10.9931 121.706 6.29351 117.007 3.34828 111.227C0 104.655 0 96.0528 0 78.848V49.152Z" fill="url(#paint0_linear)"/>
<path fill-rule="evenodd" clip-rule="evenodd" d="M59.2301 80.4777C70.9648 80.4777 80.4777 70.9648 80.4777 59.2301C80.4777 47.4954 70.9648 37.9826 59.2301 37.9826C47.4954 37.9826 37.9826 47.4954 37.9826 59.2301C37.9826 70.9648 47.4954 80.4777 59.2301 80.4777ZM59.2301 88.2829C75.2755 88.2829 88.2829 75.2755 88.2829 59.2301C88.2829 43.1847 75.2755 30.1774 59.2301 30.1774C43.1847 30.1774 30.1774 43.1847 30.1774 59.2301C30.1774 75.2755 43.1847 88.2829 59.2301 88.2829Z" fill="black"/>
<path fill-rule="evenodd" clip-rule="evenodd" d="M74.2544 74.8676C75.7784 73.3436 78.2494 73.3436 79.7735 74.8676L94.4912 89.5853C96.0152 91.1094 96.0152 93.5804 94.4912 95.1044C92.9671 96.6285 90.4961 96.6285 88.972 95.1044L74.2544 80.3868C72.7303 78.8627 72.7303 76.3917 74.2544 74.8676Z" fill="black"/>
<defs>
<linearGradient id="paint0_linear" x1="64" y1="0" x2="64" y2="128" gradientUnits="userSpaceOnUse">
<stop stop-color="#6CCF2F"/>
<stop offset="1" stop-color="#02BA41"/>
</linearGradient>
</defs>
</svg>
