<svg width="128" height="128" viewBox="0 0 128 128" fill="none" xmlns="http://www.w3.org/2000/svg">
<path d="M0 49.152C0 31.9472 0 23.3448 3.34828 16.7734C6.29351 10.9931 10.9931 6.29351 16.7734 3.34828C23.3448 0 31.9472 0 49.152 0H78.848C96.0528 0 104.655 0 111.227 3.34828C117.007 6.29351 121.706 10.9931 124.652 16.7734C128 23.3448 128 31.9472 128 49.152V78.848C128 96.0528 128 104.655 124.652 111.227C121.706 117.007 117.007 121.706 111.227 124.652C104.655 128 96.0528 128 78.848 128H49.152C31.9472 128 23.3448 128 16.7734 124.652C10.9931 121.706 6.29351 117.007 3.34828 111.227C0 104.655 0 96.0528 0 78.848V49.152Z" fill="url(#paint0_linear)"/>
<ellipse cx="47.95" cy="41.2703" rx="12.5267" ry="15.6283" fill="black"/>
<path fill-rule="evenodd" clip-rule="evenodd" d="M85.4734 28.0368C87.4805 28.0368 89.1077 29.4541 89.1077 31.2024L89.1077 99.1924C89.1077 100.941 87.4805 102.358 85.4734 102.358C83.4662 102.358 81.8391 100.941 81.8391 99.1924L81.8391 31.2024C81.8391 29.4541 83.4662 28.0368 85.4734 28.0368Z" fill="black"/>
<path fill-rule="evenodd" clip-rule="evenodd" d="M72.6805 28.0368C74.6876 28.0368 76.3148 29.4541 76.3148 31.2024L76.3148 99.1924C76.3148 100.941 74.6876 102.358 72.6805 102.358C70.6733 102.358 69.0462 100.941 69.0462 99.1924L69.0462 31.2024C69.0462 29.4541 70.6733 28.0368 72.6805 28.0368Z" fill="black"/>
<path fill-rule="evenodd" clip-rule="evenodd" d="M47.9499 28.0368C49.9571 28.0368 51.5842 29.4541 51.5842 31.2024L51.5842 99.1924C51.5842 100.941 49.9571 102.358 47.9499 102.358C45.9428 102.358 44.3157 100.941 44.3157 99.1924L44.3157 31.2024C44.3157 29.4541 45.9428 28.0368 47.9499 28.0368Z" fill="black"/>
<defs>
<linearGradient id="paint0_linear" x1="64" y1="0" x2="64" y2="128" gradientUnits="userSpaceOnUse">
<stop stop-color="#0094FF"/>
<stop offset="1" stop-color="#0038FF"/>
</linearGradient>
</defs>
</svg>
