<svg width="128" height="129" viewBox="0 0 128 129" fill="none" xmlns="http://www.w3.org/2000/svg">
<g clip-path="url(#clip0)">
<path d="M0 49.611C0 32.4062 0 23.8038 3.34828 17.2324C6.29351 11.4521 10.9931 6.75249 16.7734 3.80726C23.3448 0.458984 31.9472 0.458984 49.152 0.458984H78.848C96.0528 0.458984 104.655 0.458984 111.227 3.80726C117.007 6.75249 121.706 11.4521 124.652 17.2324C128 23.8038 128 32.4062 128 49.611V79.307C128 96.5118 128 105.114 124.652 111.686C121.706 117.466 117.007 122.165 111.227 125.111C104.655 128.459 96.0528 128.459 78.848 128.459H49.152C31.9472 128.459 23.3448 128.459 16.7734 125.111C10.9931 122.165 6.29351 117.466 3.34828 111.686C0 105.114 0 96.5118 0 79.307V49.611Z" fill="url(#paint0_linear)"/>
<ellipse cx="47.95" cy="41.7293" rx="12.5267" ry="15.6283" fill="black"/>
<path fill-rule="evenodd" clip-rule="evenodd" d="M85.4734 28.4958C87.4805 28.4958 89.1077 29.9131 89.1077 31.6614L89.1077 99.6513C89.1077 101.4 87.4805 102.817 85.4734 102.817C83.4662 102.817 81.8391 101.4 81.8391 99.6513L81.8391 31.6614C81.8391 29.9131 83.4662 28.4958 85.4734 28.4958Z" fill="black"/>
<path fill-rule="evenodd" clip-rule="evenodd" d="M72.6805 28.4958C74.6876 28.4958 76.3148 29.9131 76.3148 31.6614L76.3148 99.6513C76.3148 101.4 74.6876 102.817 72.6805 102.817C70.6733 102.817 69.0462 101.4 69.0462 99.6513L69.0462 31.6614C69.0462 29.9131 70.6733 28.4958 72.6805 28.4958Z" fill="black"/>
<path fill-rule="evenodd" clip-rule="evenodd" d="M47.9499 28.4958C49.9571 28.4958 51.5842 29.9131 51.5842 31.6614L51.5842 99.6513C51.5842 101.4 49.9571 102.817 47.9499 102.817C45.9428 102.817 44.3157 101.4 44.3157 99.6513L44.3157 31.6614C44.3157 29.9131 45.9428 28.4958 47.9499 28.4958Z" fill="black"/>
</g>
<defs>
<linearGradient id="paint0_linear" x1="64" y1="0.458984" x2="64" y2="128.459" gradientUnits="userSpaceOnUse">
<stop stop-color="#31A8FF"/>
<stop offset="1" stop-color="#305DFF"/>
</linearGradient>
<clipPath id="clip0">
<rect width="128" height="128" fill="white" transform="translate(0 0.458984)"/>
</clipPath>
</defs>
</svg>
