<svg width="128" height="129" viewBox="0 0 128 129" fill="none" xmlns="http://www.w3.org/2000/svg">
<g clip-path="url(#clip0)">
<path d="M0 49.9715C0 32.7667 0 24.1643 3.34828 17.5929C6.29351 11.8126 10.9931 7.11301 16.7734 4.16778C23.3448 0.819504 31.9472 0.819504 49.152 0.819504H78.848C96.0528 0.819504 104.655 0.819504 111.227 4.16778C117.007 7.11301 121.706 11.8126 124.652 17.5929C128 24.1643 128 32.7667 128 49.9715V79.6675C128 96.8723 128 105.475 124.652 112.046C121.706 117.826 117.007 122.526 111.227 125.471C104.655 128.82 96.0528 128.82 78.848 128.82H49.152C31.9472 128.82 23.3448 128.82 16.7734 125.471C10.9931 122.526 6.29351 117.826 3.34828 112.046C0 105.475 0 96.8723 0 79.6675V49.9715Z" fill="url(#paint0_linear)"/>
<rect x="35.5977" y="34.4659" width="51.1675" height="15.6104" rx="5" fill="white"/>
<rect x="47.3055" y="57.0143" width="52.0348" height="15.6104" rx="5" fill="white"/>
<rect x="35.5977" y="79.5627" width="51.1675" height="15.6104" rx="5" fill="white"/>
</g>
<defs>
<linearGradient id="paint0_linear" x1="64" y1="0.819504" x2="64" y2="128.82" gradientUnits="userSpaceOnUse">
<stop stop-color="#E1E3E7"/>
<stop offset="0.9999" stop-color="#B7B9BF"/>
</linearGradient>
<clipPath id="clip0">
<rect width="128" height="128" fill="white" transform="translate(0 0.819504)"/>
</clipPath>
</defs>
</svg>
