<svg width="128" height="128" viewBox="0 0 128 128" fill="none" xmlns="http://www.w3.org/2000/svg">
<path d="M0 49.152C0 31.9472 0 23.3448 3.34828 16.7734C6.29351 10.9931 10.9931 6.29351 16.7734 3.34828C23.3448 0 31.9472 0 49.152 0H78.848C96.0528 0 104.655 0 111.227 3.34828C117.007 6.29351 121.706 10.9931 124.652 16.7734C128 23.3448 128 31.9472 128 49.152V78.848C128 96.0528 128 104.655 124.652 111.227C121.706 117.007 117.007 121.706 111.227 124.652C104.655 128 96.0528 128 78.848 128H49.152C31.9472 128 23.3448 128 16.7734 124.652C10.9931 121.706 6.29351 117.007 3.34828 111.227C0 104.655 0 96.0528 0 78.848V49.152Z" fill="url(#paint0_linear)"/>
<ellipse cx="63.5663" cy="45.3542" rx="17.7786" ry="17.7786" fill="black"/>
<path fill-rule="evenodd" clip-rule="evenodd" d="M97.7029 97.8227C97.7822 97.1079 97.8226 96.3848 97.8226 95.6546C97.8226 81.525 82.6797 70.0708 64 70.0708C45.3203 70.0708 30.1774 81.525 30.1774 95.6546C30.1774 96.3848 30.2178 97.1079 30.2971 97.8227H97.7029Z" fill="black"/>
<defs>
<linearGradient id="paint0_linear" x1="64" y1="0" x2="64" y2="128" gradientUnits="userSpaceOnUse">
<stop stop-color="#7B5AFF"/>
<stop offset="1" stop-color="#5F14BE"/>
</linearGradient>
</defs>
</svg>
